<svg width="371" height="358" viewBox="0 0 371 358" fill="none" xmlns="http://www.w3.org/2000/svg">
<path d="M125.329 256.609C124.641 256.611 123.977 256.35 123.474 255.879C122.971 255.409 122.667 254.765 122.622 254.078C122.169 246.61 122.382 239.116 123.258 231.686C123.342 230.968 123.709 230.313 124.276 229.865C124.843 229.417 125.566 229.212 126.284 229.297C127.002 229.381 127.657 229.747 128.105 230.315C128.553 230.882 128.758 231.604 128.673 232.322C127.833 239.429 127.63 246.596 128.064 253.739C128.108 254.455 127.867 255.16 127.392 255.698C126.917 256.236 126.249 256.564 125.532 256.609H125.329Z" fill="#EFEFEF"/>
<path d="M368.292 238.266C367.615 238.268 366.96 238.017 366.459 237.561C365.958 237.104 365.646 236.477 365.585 235.802C360.468 177.589 312.598 131.1 254.263 127.499C247.126 127.059 239.963 127.258 232.86 128.095C232.454 128.143 232.042 128.098 231.656 127.964C231.269 127.829 230.918 127.61 230.629 127.32C230.34 127.031 230.12 126.68 229.986 126.294C229.852 125.907 229.807 125.496 229.855 125.089C230.683 117.982 230.882 110.815 230.45 103.673C230.406 102.955 230.648 102.248 231.124 101.708C231.6 101.169 232.271 100.841 232.989 100.796C233.707 100.751 234.413 100.993 234.953 101.469C235.492 101.945 235.821 102.616 235.866 103.334C236.245 109.677 236.15 116.04 235.581 122.368C241.906 121.799 248.263 121.704 254.602 122.084C315.522 125.793 365.612 174.462 371.027 235.274C371.059 235.628 371.02 235.986 370.913 236.326C370.806 236.666 370.634 236.981 370.405 237.254C370.176 237.527 369.895 237.752 369.579 237.916C369.263 238.08 368.918 238.181 368.563 238.211L368.292 238.266Z" fill="#EFEFEF"/>
<path d="M246.926 357.398C243.623 357.398 240.279 357.249 236.989 356.965C182.838 352.186 139.422 307.593 136.119 253.252C135.396 241.555 136.524 229.818 139.463 218.473C128.118 221.409 116.381 222.537 104.684 221.817C50.3299 218.5 5.74987 175.152 0.971023 120.96C-0.472572 105.586 1.33689 90.0795 6.28168 75.4504C11.2265 60.8212 19.1958 47.397 29.6712 36.0512C40.0836 24.7066 52.7362 15.6453 66.8292 9.43998C80.9222 3.23467 96.1492 0.0202957 111.548 0C114.851 0 118.195 0.148916 121.498 0.43321C175.649 5.21206 219.038 49.8056 222.341 104.146C223.064 115.843 221.936 127.58 218.997 138.925C230.342 135.985 242.079 134.856 253.776 135.581C308.13 138.898 352.724 182.246 357.489 236.451C358.937 251.823 357.131 267.327 352.188 281.955C347.246 296.582 339.277 310.004 328.803 321.347C318.391 332.693 305.739 341.755 291.646 347.961C277.552 354.166 262.325 357.38 246.926 357.398ZM143.402 211.84C143.826 211.84 144.244 211.94 144.622 212.131C145 212.322 145.329 212.599 145.58 212.94C145.832 213.281 146 213.677 146.07 214.095C146.141 214.512 146.113 214.941 145.988 215.346C142.264 227.505 140.76 240.235 141.548 252.927C144.688 304.614 185.925 347.028 237.477 351.563C240.604 351.848 243.785 351.983 246.953 351.983C261.601 351.968 276.087 348.912 289.493 343.01C302.899 337.107 314.934 328.486 324.836 317.692C334.797 306.895 342.373 294.123 347.073 280.205C351.773 266.288 353.491 251.537 352.115 236.912C347.566 185.36 305.166 144.124 253.465 140.983C251.272 140.847 249.078 140.78 246.94 140.78C236.418 140.765 225.954 142.33 215.897 145.423C215.427 145.568 214.926 145.582 214.448 145.463C213.97 145.345 213.534 145.098 213.186 144.75C212.838 144.402 212.591 143.966 212.473 143.488C212.354 143.01 212.368 142.509 212.513 142.039C216.23 129.883 217.734 117.159 216.953 104.471C213.812 52.7975 172.576 10.37 121.024 5.8348C117.884 5.5505 114.702 5.41512 111.548 5.41512C96.9003 5.43354 82.4158 8.49058 69.0101 14.393C55.6045 20.2954 43.5691 28.9149 33.6648 39.7064C23.7021 50.5018 16.1242 63.2741 11.4243 77.1919C6.72438 91.1098 5.00775 105.861 6.38615 120.487C10.9213 172.025 53.3353 213.261 105.023 216.402C107.189 216.537 109.382 216.605 111.561 216.605C122.083 216.619 132.547 215.054 142.604 211.962C142.862 211.881 143.131 211.84 143.402 211.84Z" fill="#E4E1EF"/>
<path d="M246.926 343.86C244.015 343.86 241.078 343.725 238.167 343.481C222.866 342.108 208.106 337.137 195.091 328.973C182.076 320.81 171.175 309.687 163.277 296.509C155.38 283.332 150.708 268.474 149.645 253.148C148.581 237.822 151.155 222.462 157.157 208.32L149.603 200.766C137.568 205.877 124.623 208.502 111.548 208.482C109.531 208.482 107.487 208.415 105.51 208.293C82.2895 206.766 60.3721 197.018 43.6882 180.795C27.0043 164.573 16.6451 142.938 14.4682 119.769C13.2005 106.266 14.7885 92.6473 19.129 79.7982C23.4696 66.9492 30.4655 55.1573 39.6621 45.1892C48.8038 35.2288 59.9124 27.2731 72.2858 21.8251C84.6592 16.377 98.0282 13.5552 111.548 13.5378C114.458 13.5378 117.396 13.6732 120.307 13.9304C135.605 15.3069 150.362 20.2793 163.373 28.4424C176.385 36.6055 187.283 47.7281 195.179 60.9034C203.075 74.0786 207.746 88.9335 208.81 104.257C209.875 119.58 207.303 134.938 201.304 149.078L208.871 156.633C220.905 151.518 233.85 148.894 246.926 148.916C248.902 148.916 250.987 148.916 252.964 149.105C276.185 150.629 298.104 160.377 314.789 176.6C331.473 192.823 341.831 214.46 344.006 237.629C345.279 251.132 343.696 264.751 339.357 277.6C335.019 290.45 328.023 302.242 318.825 312.209C309.682 322.171 298.571 330.128 286.195 335.576C273.82 341.024 260.448 343.845 246.926 343.86ZM150.225 194.836C150.94 194.836 151.627 195.118 152.134 195.621L162.315 205.775C162.702 206.163 162.962 206.659 163.061 207.198C163.16 207.737 163.094 208.293 162.87 208.794C156.888 222.175 154.187 236.791 154.993 251.427C155.799 266.062 160.089 280.294 167.504 292.937C174.92 305.581 185.247 316.271 197.627 324.118C210.007 331.965 224.082 336.742 238.681 338.053C241.389 338.296 244.218 338.418 246.967 338.418C259.737 338.402 272.365 335.737 284.054 330.592C295.742 325.447 306.236 317.934 314.872 308.527C323.55 299.116 330.152 287.985 334.25 275.857C338.347 263.73 339.849 250.876 338.658 238.13C336.601 216.249 326.815 195.816 311.056 180.497C295.298 165.177 274.597 155.973 252.666 154.534C250.757 154.412 248.835 154.358 246.967 154.358C234.019 154.337 221.214 157.064 209.399 162.359C208.899 162.583 208.342 162.65 207.803 162.551C207.264 162.452 206.768 162.191 206.38 161.804L196.186 151.624C195.799 151.236 195.539 150.739 195.44 150.2C195.34 149.661 195.407 149.105 195.631 148.605C201.613 135.223 204.314 120.607 203.508 105.971C202.701 91.3359 198.412 77.1045 190.997 64.4611C183.581 51.8176 173.254 41.1277 160.874 33.2805C148.493 25.4334 134.418 20.6559 119.819 19.3456C117.098 19.0748 114.255 18.953 111.548 18.953C98.7793 18.9684 86.1528 21.633 74.4667 26.7781C62.7807 31.9232 52.2892 39.437 43.6557 48.8445C34.9737 58.2527 28.369 69.3829 24.271 81.5114C20.1729 93.6399 18.6734 106.495 19.8698 119.241C21.9244 141.121 31.7072 161.554 47.4636 176.873C63.2201 192.193 83.9192 201.398 105.848 202.837C107.744 202.959 109.653 203.013 111.561 203.013C124.505 203.035 137.305 200.307 149.115 195.012C149.469 194.877 149.847 194.817 150.225 194.836Z" fill="#BDB1EF"/>
<path d="M246.926 330.323C244.408 330.323 241.863 330.214 239.358 329.984C225.433 328.727 212.043 324.011 200.404 316.265C188.764 308.519 179.244 297.988 172.707 285.628C166.171 273.269 162.826 259.472 162.976 245.491C163.125 231.51 166.765 217.789 173.565 205.572L152.351 184.372C140.134 191.168 126.414 194.805 112.435 194.953C98.4561 195.101 84.6616 191.756 72.3038 185.22C59.9461 178.684 49.4166 169.165 41.6713 157.527C33.9259 145.889 29.2101 132.501 27.9519 118.578C26.8506 106.95 28.2102 95.2205 31.9421 84.1529C35.6741 73.0853 41.6948 62.9275 49.6124 54.3408C57.4867 45.757 67.0575 38.9014 77.7187 34.2082C88.3799 29.5149 99.8993 27.0862 111.548 27.0757C114.052 27.0757 116.597 27.184 119.115 27.4141C133.04 28.6713 146.431 33.3871 158.07 41.1332C169.71 48.8793 179.23 59.4104 185.766 71.7701C192.303 84.1297 195.648 97.9264 195.498 111.907C195.348 125.888 191.709 139.61 184.909 151.827L206.109 173.027C218.594 166.087 232.642 162.448 246.926 162.454C248.632 162.454 250.392 162.454 252.138 162.616C272.13 163.926 291.001 172.316 305.366 186.281C319.731 200.247 328.65 218.874 330.522 238.821C331.623 250.45 330.263 262.182 326.531 273.251C322.799 284.321 316.779 294.481 308.861 303.071C300.984 311.65 291.413 318.502 280.752 323.193C270.091 327.884 258.573 330.311 246.926 330.323ZM152.811 178.279C153.168 178.279 153.522 178.35 153.852 178.487C154.182 178.624 154.482 178.825 154.733 179.078L178.871 203.216C179.296 203.64 179.568 204.194 179.644 204.789C179.72 205.385 179.596 205.989 179.291 206.506C172.562 217.914 168.829 230.838 168.438 244.077C168.046 257.316 171.01 270.439 177.054 282.224C183.097 294.009 192.023 304.075 203.002 311.483C213.981 318.891 226.655 323.402 239.846 324.596C242.201 324.799 244.584 324.908 246.939 324.908C257.832 324.894 268.603 322.62 278.572 318.229C288.541 313.839 297.49 307.428 304.854 299.402C312.268 291.37 317.908 281.866 321.407 271.51C324.906 261.154 326.185 250.177 325.161 239.294C323.403 220.639 315.058 203.219 301.622 190.158C288.186 177.097 270.538 169.248 251.84 168.018C250.202 167.923 248.551 167.869 246.953 167.869C232.93 167.848 219.157 171.588 207.071 178.699C206.553 179.004 205.95 179.128 205.354 179.052C204.759 178.976 204.205 178.704 203.781 178.279L179.63 154.142C179.207 153.716 178.938 153.162 178.864 152.566C178.791 151.971 178.917 151.368 179.223 150.852C185.943 139.444 189.669 126.522 190.054 113.288C190.44 100.054 187.473 86.9371 181.429 75.1574C175.385 63.3776 166.461 53.3174 155.486 45.9121C144.51 38.5069 131.841 33.9971 118.655 32.8022C116.3 32.5991 113.917 32.4908 111.548 32.4908C100.656 32.5064 89.8848 34.7812 79.9163 39.1712C69.9478 43.5613 60.9983 49.9712 53.6331 57.996C46.2219 66.0304 40.5838 75.5341 37.0853 85.8897C33.5868 96.2453 32.3061 107.221 33.3264 118.104C34.5116 131.302 39.0179 143.986 46.4253 154.973C53.8328 165.961 63.9006 174.895 75.6909 180.943C87.4812 186.992 100.611 189.958 113.856 189.566C127.101 189.173 140.032 185.435 151.444 178.699C151.852 178.435 152.325 178.289 152.811 178.279Z" fill="#9681EF"/>
<path d="M251.163 178.834C236.028 177.866 221.009 182.03 208.533 190.653C207.232 191.533 205.666 191.933 204.102 191.784C202.539 191.636 201.076 190.949 199.963 189.841L168.109 157.986C167 156.874 166.313 155.411 166.165 153.847C166.017 152.284 166.417 150.718 167.297 149.417C176.879 135.511 180.917 118.526 178.619 101.796C176.321 85.0662 167.852 69.7993 154.875 58.9929C141.898 48.1865 125.35 42.6211 108.481 43.3893C91.6108 44.1575 75.6374 51.2038 63.6963 63.1449C51.7552 75.086 44.7089 91.0594 43.9407 107.929C43.1725 124.799 48.7379 141.347 59.5443 154.324C70.3507 167.3 85.6175 175.769 102.348 178.068C119.078 180.366 136.063 176.327 149.968 166.745C151.269 165.866 152.835 165.466 154.399 165.614C155.962 165.762 157.425 166.449 158.538 167.557L190.379 199.412C191.489 200.523 192.179 201.985 192.329 203.548C192.48 205.112 192.082 206.679 191.204 207.981C182.72 220.292 178.551 235.065 179.347 249.995C180.143 264.925 185.859 279.171 195.604 290.51C205.349 301.849 218.574 309.643 233.214 312.674C247.855 315.706 263.087 313.805 276.533 307.269C289.98 300.732 300.884 289.928 307.543 276.542C314.203 263.156 316.243 247.942 313.346 233.274C310.449 218.607 302.777 205.311 291.527 195.463C280.278 185.614 266.085 179.767 251.163 178.834Z" fill="#7751F1"/>
</svg>
