<svg width="398" height="370" viewBox="0 0 398 370" fill="none" xmlns="http://www.w3.org/2000/svg">
<path d="M3.53769 129.01C2.83378 129.012 2.15467 128.75 1.63535 128.274C1.11602 127.799 0.79449 127.146 0.734662 126.445C-0.938956 108.593 1.16498 90.5886 6.90957 73.6035C12.6542 56.6185 21.9106 41.0333 34.0767 27.8622C34.3252 27.5861 34.6256 27.3617 34.9608 27.2017C35.296 27.0417 35.6594 26.9493 36.0303 26.9298C36.4012 26.9103 36.7724 26.964 37.1225 27.0879C37.4726 27.2118 37.795 27.4035 38.071 27.6519C38.3471 27.9004 38.5715 28.2008 38.7315 28.536C38.8915 28.8712 38.9839 29.2347 39.0034 29.6056C39.0229 29.9765 38.9692 30.3476 38.8453 30.6977C38.7214 31.0479 38.5297 31.3702 38.2813 31.6463C26.6327 44.2412 17.7681 59.1487 12.2648 75.3978C6.76153 91.6469 4.743 108.873 6.34072 125.954C6.39127 126.687 6.15237 127.41 5.67538 127.968C5.19839 128.526 4.52141 128.875 3.78996 128.939L3.53769 129.01Z" fill="#EFEFEF"/>
<path d="M143.437 265.657C142.724 265.659 142.037 265.388 141.517 264.902C140.996 264.415 140.68 263.748 140.634 263.036C140.165 255.305 140.386 247.547 141.293 239.855C141.38 239.112 141.759 238.434 142.346 237.97C142.934 237.506 143.682 237.294 144.425 237.382C145.168 237.469 145.847 237.848 146.311 238.435C146.774 239.023 146.986 239.771 146.899 240.514C146.029 247.871 145.818 255.291 146.268 262.686C146.314 263.427 146.064 264.157 145.572 264.714C145.081 265.271 144.389 265.61 143.647 265.657H143.437Z" fill="#EFEFEF"/>
<path d="M394.967 246.667C394.265 246.67 393.588 246.409 393.069 245.937C392.55 245.465 392.227 244.815 392.164 244.116C386.866 183.851 337.309 135.723 276.917 131.995C269.528 131.539 262.112 131.745 254.759 132.611C254.339 132.661 253.912 132.614 253.512 132.476C253.112 132.337 252.749 132.109 252.45 131.81C252.15 131.51 251.923 131.147 251.784 130.747C251.645 130.347 251.598 129.921 251.648 129.5C252.505 122.142 252.712 114.722 252.265 107.328C252.218 106.585 252.469 105.853 252.962 105.295C253.455 104.736 254.149 104.396 254.892 104.35C255.636 104.303 256.367 104.554 256.926 105.047C257.484 105.54 257.824 106.234 257.871 106.978C258.264 113.544 258.165 120.131 257.576 126.683C264.124 126.094 270.706 125.995 277.268 126.389C340.336 130.229 392.192 180.613 397.798 243.569C397.831 243.937 397.791 244.307 397.68 244.658C397.569 245.01 397.391 245.337 397.154 245.619C396.917 245.902 396.626 246.135 396.299 246.305C395.972 246.475 395.615 246.579 395.247 246.611L394.967 246.667Z" fill="#EFEFEF"/>
<path d="M269.321 370C265.901 370 262.44 369.846 259.034 369.551C202.973 364.604 158.027 318.438 154.607 262.181C153.858 250.072 155.027 237.921 158.069 226.177C146.324 229.216 134.173 230.384 122.064 229.638C65.793 226.205 19.6411 181.328 14.6938 125.225C13.1993 109.309 15.0725 93.2557 20.1917 78.1107C25.3108 62.9658 33.5611 49.0683 44.4059 37.3223C55.1854 25.5777 68.2841 16.1969 82.8741 9.77283C97.464 3.34873 113.228 0.0210113 129.17 0C132.589 0 136.051 0.154167 139.471 0.448485C195.531 5.39583 240.45 51.5617 243.87 107.819C244.618 119.928 243.45 132.079 240.408 143.823C252.152 140.78 264.304 139.611 276.413 140.362C332.684 143.795 378.849 188.672 383.783 244.789C385.282 260.702 383.412 276.753 378.295 291.896C373.178 307.039 364.929 320.935 354.085 332.678C343.306 344.424 330.208 353.805 315.618 360.229C301.027 366.654 285.263 369.981 269.321 370ZM162.147 219.309C162.586 219.309 163.018 219.413 163.41 219.61C163.802 219.808 164.141 220.095 164.402 220.448C164.662 220.802 164.836 221.211 164.909 221.643C164.983 222.076 164.953 222.52 164.824 222.939C160.968 235.527 159.411 248.706 160.227 261.845C163.479 315.355 206.169 359.264 259.538 363.959C262.776 364.254 266.07 364.394 269.349 364.394C284.514 364.378 299.51 361.215 313.389 355.104C327.268 348.993 339.727 340.068 349.978 328.894C360.29 317.716 368.134 304.493 372.999 290.085C377.865 275.677 379.643 260.406 378.219 245.265C373.51 191.895 329.614 149.205 276.09 145.954C273.82 145.814 271.549 145.744 269.335 145.744C258.443 145.728 247.609 147.348 237.198 150.551C236.711 150.701 236.193 150.715 235.698 150.592C235.203 150.47 234.752 150.214 234.391 149.854C234.031 149.494 233.776 149.042 233.653 148.547C233.53 148.053 233.545 147.534 233.695 147.047C237.543 134.463 239.1 121.29 238.291 108.155C235.04 54.6591 192.35 10.7356 138.98 6.04053C135.729 5.74621 132.435 5.60606 129.17 5.60606C114.005 5.62512 99.0103 8.78995 85.1319 14.9005C71.2535 21.011 58.7938 29.9344 48.5403 41.1064C38.2264 52.2825 30.3813 65.5051 25.5156 79.9137C20.65 94.3223 18.8728 109.594 20.2998 124.735C24.9949 178.091 68.9044 220.781 122.414 224.032C124.657 224.172 126.927 224.242 129.184 224.242C140.076 224.257 150.909 222.636 161.32 219.435C161.588 219.352 161.867 219.31 162.147 219.309Z" fill="#E4E1EF"/>
<path d="M269.321 355.985C266.308 355.985 263.266 355.845 260.253 355.592C244.412 354.17 229.132 349.024 215.658 340.573C202.185 332.122 190.9 320.606 182.723 306.964C174.547 293.322 169.711 277.941 168.609 262.074C167.508 246.208 170.173 230.306 176.387 215.665L168.566 207.845C156.107 213.136 142.706 215.854 129.17 215.833C127.081 215.833 124.965 215.763 122.919 215.637C98.8795 214.057 76.1894 203.965 58.9172 187.17C41.645 170.376 30.9205 147.978 28.6669 123.992C27.3544 110.013 28.9984 95.914 33.492 82.6118C37.9856 69.3097 45.2282 57.1021 54.7491 46.7826C64.2131 36.4709 75.7134 28.2347 88.5231 22.5946C101.333 16.9545 115.173 14.0331 129.17 14.0151C132.183 14.0151 135.224 14.1553 138.237 14.4216C154.075 15.8465 169.352 20.9943 182.822 29.4452C196.293 37.8962 207.575 49.411 215.75 63.0508C223.924 76.6906 228.76 92.0692 229.862 107.933C230.963 123.796 228.3 139.696 222.09 154.335L229.924 162.155C242.383 156.861 255.784 154.144 269.321 154.167C271.367 154.167 273.526 154.167 275.572 154.363C299.612 155.94 322.304 166.032 339.576 182.827C356.849 199.622 367.573 222.021 369.824 246.008C371.142 259.986 369.503 274.086 365.011 287.389C360.52 300.691 353.278 312.899 343.756 323.217C334.29 333.531 322.787 341.768 309.975 347.408C297.163 353.048 283.32 355.969 269.321 355.985ZM169.211 201.706C169.951 201.705 170.661 201.998 171.187 202.519L181.726 213.03C182.127 213.432 182.397 213.946 182.499 214.504C182.602 215.062 182.533 215.638 182.301 216.156C176.108 230.009 173.312 245.141 174.147 260.292C174.981 275.444 179.422 290.177 187.099 303.266C194.776 316.355 205.467 327.422 218.284 335.546C231.101 343.67 245.672 348.616 260.786 349.972C263.589 350.225 266.518 350.351 269.363 350.351C282.584 350.334 295.657 347.575 307.758 342.249C319.858 336.923 330.722 329.144 339.663 319.405C348.647 309.662 355.482 298.139 359.724 285.584C363.966 273.029 365.521 259.722 364.288 246.526C362.158 223.874 352.027 202.721 335.713 186.861C319.398 171.001 297.967 161.472 275.263 159.983C273.287 159.857 271.297 159.801 269.363 159.801C255.959 159.779 242.703 162.602 230.471 168.084C229.953 168.315 229.377 168.385 228.819 168.282C228.261 168.179 227.747 167.91 227.346 167.509L216.792 156.97C216.391 156.568 216.122 156.054 216.019 155.496C215.917 154.938 215.986 154.362 216.218 153.844C222.411 139.991 225.206 124.859 224.372 109.708C223.537 94.5564 219.097 79.8232 211.42 66.7339C203.743 53.6447 193.051 42.5778 180.234 34.454C167.418 26.3301 152.846 21.3842 137.733 20.0276C134.916 19.7473 131.973 19.6212 129.17 19.6212C115.951 19.6372 102.879 22.3957 90.7809 27.7222C78.6828 33.0488 67.8214 40.8275 58.8835 50.5667C49.8954 60.3067 43.0578 71.8293 38.8152 84.3854C34.5727 96.9415 33.0203 110.25 34.2589 123.445C36.3859 146.097 46.5137 167.25 62.8257 183.11C79.1377 198.97 100.567 208.499 123.269 209.989C125.231 210.115 127.207 210.171 129.184 210.171C142.583 210.193 155.835 207.37 168.062 201.888C168.428 201.748 168.819 201.686 169.211 201.706Z" fill="#BDB1EF"/>
<path d="M269.321 341.97C266.714 341.97 264.079 341.858 261.487 341.619C247.071 340.318 233.208 335.436 221.158 327.416C209.108 319.397 199.252 308.495 192.486 295.699C185.719 282.904 182.256 268.621 182.411 254.147C182.566 239.673 186.334 225.468 193.373 212.82L171.411 190.872C158.764 197.908 144.56 201.674 130.088 201.827C115.616 201.98 101.335 198.517 88.5418 191.75C75.7483 184.984 64.8475 175.129 56.8291 163.081C48.8106 151.033 43.9285 137.173 42.6259 122.759C41.4858 110.721 42.8933 98.5778 46.7569 87.12C50.6204 75.6621 56.8534 65.1463 65.0502 56.2568C73.2022 47.3703 83.1104 40.273 94.1475 35.4143C105.185 30.5555 117.11 28.0411 129.17 28.0303C131.762 28.0303 134.397 28.1424 137.004 28.3807C151.42 29.6821 165.282 34.5642 177.332 42.5835C189.382 50.6027 199.238 61.5051 206.005 74.3006C212.772 87.096 216.235 101.379 216.08 115.853C215.925 130.327 212.157 144.532 205.118 157.18L227.065 179.128C239.99 171.943 254.534 168.176 269.321 168.182C271.087 168.182 272.909 168.182 274.717 168.35C295.414 169.705 314.95 178.391 329.822 192.849C344.693 207.307 353.926 226.591 355.865 247.241C357.004 259.281 355.596 271.426 351.733 282.886C347.869 294.346 341.637 304.865 333.44 313.757C325.285 322.639 315.376 329.732 304.34 334.589C293.303 339.445 281.379 341.958 269.321 341.97ZM171.888 184.566C172.258 184.565 172.624 184.638 172.965 184.78C173.307 184.922 173.617 185.13 173.878 185.392L198.867 210.381C199.307 210.821 199.588 211.393 199.667 212.01C199.745 212.626 199.617 213.252 199.301 213.787C192.335 225.597 188.47 238.978 188.065 252.683C187.66 266.389 190.729 279.974 196.985 292.175C203.241 304.376 212.482 314.796 223.848 322.466C235.214 330.135 248.335 334.805 261.991 336.041C264.43 336.251 266.896 336.364 269.335 336.364C280.612 336.349 291.763 333.995 302.083 329.45C312.403 324.905 321.668 318.268 329.292 309.959C336.967 301.643 342.806 291.805 346.428 281.084C350.05 270.362 351.374 258.999 350.315 247.732C348.494 228.419 339.855 210.385 325.946 196.863C312.036 183.341 293.766 175.215 274.409 173.942C272.713 173.844 271.003 173.788 269.349 173.788C254.831 173.766 240.573 177.638 228.06 185C227.525 185.315 226.9 185.444 226.283 185.365C225.667 185.287 225.094 185.005 224.655 184.566L199.652 159.576C199.214 159.136 198.936 158.562 198.859 157.946C198.783 157.329 198.914 156.705 199.231 156.171C206.188 144.361 210.045 130.983 210.444 117.283C210.843 103.582 207.772 90.0024 201.515 77.8073C195.258 65.6122 186.019 55.1972 174.657 47.5309C163.294 39.8645 150.178 35.1958 136.527 33.9587C134.089 33.7485 131.622 33.6363 129.17 33.6363C117.893 33.6525 106.743 36.0074 96.4227 40.5523C86.1027 45.0971 76.8375 51.7331 69.2127 60.0409C61.5401 68.3585 55.7033 78.1974 52.0815 88.9181C48.4596 99.6388 47.1337 111.002 48.19 122.268C49.417 135.932 54.0821 149.062 61.7508 160.437C69.4195 171.812 79.8422 181.061 92.0482 187.323C104.254 193.585 117.847 196.656 131.559 196.25C145.272 195.843 158.658 191.973 170.472 185C170.894 184.726 171.385 184.576 171.888 184.566Z" fill="#9681EF"/>
<path d="M273.708 185.14C258.039 184.137 242.49 188.448 229.574 197.375C228.227 198.286 226.606 198.7 224.987 198.547C223.369 198.393 221.854 197.682 220.702 196.534L187.725 163.557C186.577 162.405 185.866 160.89 185.713 159.272C185.559 157.653 185.973 156.032 186.884 154.685C196.804 140.29 200.985 122.706 198.606 105.386C196.226 88.0656 187.459 72.2605 174.024 61.073C160.59 49.8856 143.459 44.124 125.994 44.9193C108.529 45.7146 91.9929 53.0093 79.6307 65.3715C67.2686 77.7336 59.9738 94.2702 59.1786 111.735C58.3833 129.199 64.1449 146.33 75.3323 159.765C86.5197 173.199 102.325 181.967 119.645 184.346C136.965 186.726 154.549 182.545 168.945 172.625C170.291 171.714 171.913 171.3 173.531 171.453C175.15 171.607 176.664 172.318 177.816 173.466L210.78 206.443C211.929 207.593 212.643 209.107 212.799 210.726C212.955 212.344 212.544 213.967 211.635 215.315C202.852 228.06 198.535 243.354 199.359 258.81C200.183 274.266 206.101 289.015 216.19 300.754C226.278 312.492 239.969 320.561 255.126 323.699C270.282 326.838 286.052 324.87 299.972 318.103C313.893 311.336 325.181 300.151 332.076 286.293C338.97 272.435 341.082 256.684 338.083 241.5C335.083 226.315 327.141 212.55 315.495 202.355C303.849 192.159 289.156 186.106 273.708 185.14Z" fill="#7751F1"/>
</svg>
