<?xml version="1.0" encoding="utf-8"?>
<!-- Generator: Adobe Illustrator 26.0.0, SVG Export Plug-In . SVG Version: 6.00 Build 0)  -->
<svg version="1.1" id="Layer_1" xmlns="http://www.w3.org/2000/svg" xmlns:xlink="http://www.w3.org/1999/xlink" x="0px" y="0px"
	 viewBox="0 0 925.4 200" style="enable-background:new 0 0 925.4 200;" xml:space="preserve">
<style type="text/css">
	.st0{fill:#0E0B1E;}
	.st1{fill:#7751F1;}
</style>
<g id="Layer_2_00000131340599239347950830000011194351601071419797_">
	<g id="Layer_2-2">
		<path class="st0" d="M248.3,40.6c0-5.7,4.6-10.4,10.3-10.4c0,0,0.1,0,0.1,0c5.6,0,10.2,4.6,10.2,10.2c0,0.1,0,0.1,0,0.2
			c0.1,5.6-4.3,10.3-10,10.4c-0.1,0-0.2,0-0.2,0c-5.7,0-10.4-4.6-10.4-10.3C248.3,40.7,248.3,40.6,248.3,40.6z M250,76
			c0-1.7,0.8-2.7,2.5-2.7h12.1c1.3-0.2,2.5,0.8,2.7,2.1c0,0.2,0,0.4,0,0.6v89c0.2,1.3-0.8,2.5-2.1,2.7c-0.2,0-0.4,0-0.6,0h-12.1
			c-1.7,0-2.5-1-2.5-2.7L250,76z"/>
		<path class="st0" d="M309.1,150.9l-0.4,14.1c0,1.7-0.8,2.7-2.5,2.7H295c-1.3,0.2-2.5-0.8-2.7-2.1c0-0.2,0-0.4,0-0.6V32.7
			c-0.2-1.3,0.8-2.5,2.1-2.7c0.2,0,0.4,0,0.6,0h12.1c1.3-0.2,2.5,0.8,2.7,2.1c0,0.2,0,0.4,0,0.6v56.6C316.6,78,328.3,71,343.9,71
			c27.2,0,46,21.4,46,49.5c0,28.3-18.9,49.5-46,49.5C327.8,170,316,162.7,309.1,150.9z M340.9,154c18.7,0,32.2-13.5,32.2-33.5
			c0-19.8-13.5-33.5-32.2-33.5c-18.5,0-31.4,13.7-31.4,33.7S322.4,154,340.9,154z"/>
		<path class="st0" d="M408.2,40.6c0-5.7,4.6-10.4,10.3-10.4c0,0,0.1,0,0.1,0c5.6,0,10.2,4.5,10.2,10.2c0,0.1,0,0.2,0,0.2
			c0.1,5.6-4.3,10.3-10,10.4c-0.1,0-0.2,0-0.2,0C412.9,51,408.2,46.4,408.2,40.6C408.2,40.7,408.2,40.6,408.2,40.6z M410,76
			c0-1.7,0.8-2.7,2.5-2.7h12.1c1.3-0.2,2.5,0.8,2.7,2.1c0,0.2,0,0.4,0,0.6v89c0.2,1.3-0.8,2.5-2.1,2.7c-0.2,0-0.4,0-0.6,0h-12.2
			c-1.7,0-2.5-1-2.5-2.7L410,76z"/>
		<path class="st0" d="M452.3,165V76c-0.2-1.3,0.8-2.5,2.1-2.7c0.2,0,0.4,0,0.6,0h11.4c1.9,0,2.7,0.8,2.7,2.9l0.6,11.9
			C475,78.5,485,71,500.2,71c20.2,0,34.3,13.7,34.3,38.5V165c0.2,1.3-0.8,2.5-2.1,2.7c-0.2,0-0.4,0-0.6,0h-12.1
			c-1.7,0-2.5-1-2.5-2.7v-52.8c0-15.8-8.1-25.2-22.5-25.2s-25,9.4-25,25.2V165c0,1.7-0.8,2.7-2.5,2.7H455c-1.3,0.2-2.6-0.8-2.7-2.1
			C452.3,165.4,452.3,165.2,452.3,165z"/>
		<path class="st0" d="M554.5,120.1c0-27.7,19.5-49.1,47.8-49.1c28.1,0,44.5,21.4,44.5,44.7c0,7.7-1.5,11.2-7.9,11.2h-67.4
			c2.1,17,14.2,28.9,35,28.9c9.2,0.2,18.2-2.7,25.6-8.1c1.2-0.8,2.3-0.8,3.1,0.2l4.2,6c1.3,1.5,0.8,2.7-0.8,4.1
			C630.4,166,618.3,170,605,170C574.2,170,554.5,147.9,554.5,120.1z M631.3,114c-1-16.9-12.1-28.1-29.1-28.1s-28.9,10.6-30.8,28.1
			H631.3z"/>
		<path class="st0" d="M657.3,164.4l29.3-44.9l-27.9-43c-1.2-1.9-0.6-3.3,1.7-3.3h13.3c1.4-0.1,2.7,0.7,3.3,1.9l20,32l20-32
			c0.6-1.2,1.9-2,3.3-1.9h13.5c2.1,0,2.7,1.3,1.5,3.3l-27.9,43l29.3,44.9c1.3,1.9,0.6,3.3-1.7,3.3h-13.2c-1.4,0.1-2.7-0.7-3.3-1.9
			L697,131.7l-21.4,34.1c-0.6,1.3-1.9,2-3.3,1.9H659C656.9,167.7,656.1,166.3,657.3,164.4z"/>
		<path class="st0" d="M747.3,120.5c0-28.1,21-49.5,48.7-49.5s48.5,21.4,48.5,49.5S823.8,170,796,170S747.3,148.6,747.3,120.5z
			 M796,153.8c18.1,0,31.8-13.5,31.8-33.3S814.1,87,796,87c-18.3,0-31.8,13.7-31.8,33.5S777.7,153.8,796,153.8z"/>
		<path class="st0" d="M860.5,155.4c-1.3-1.5-1.2-3.1,0-5l3.8-5.4c1.3-1.7,3.1-1.7,4.6-0.2c6.4,6.2,13.3,10.2,22.7,10.2
			c9.8,0,16.6-4.2,16.6-12.9c0-7.7-5-11.2-13.5-14.6l-11.4-4.8c-11.5-4.8-21-12.1-21-25.4c0-16.4,13.9-26.2,30-26.2
			c11.1-0.2,21.7,4.8,28.7,13.5c1,1.2,0.9,2.9-0.2,4l-4.6,5.4c-1.5,1.9-2.9,1.7-4.6,0c-6-6-11.9-8.7-18.5-8.7
			c-7.9,0-14.2,4-14.2,11.6c0,7.9,5.8,11,14.2,14.2l10.4,4.2c12.1,5,22,12.5,21.8,27.2c0,17.9-15.4,27.5-32.9,27.5
			C877,170,866.5,162.7,860.5,155.4z"/>
		<path class="st1" d="M192.7,192.7c-9.8,9.8-25.6,9.8-35.4,0c-6.7-6.7-9-16.6-6-25.6c0.7-2.2,0.2-4.6-1.4-6.2l-5.2-5.2
			c-1.7-1.7-4.2-2.2-6.5-1.3c-9.8,3.7-20.9,1.7-28.7-5.2c-1.8-1.6-4.3-2-6.5-1l-49.5,22.4c-2.1,1-3.4,3-3.5,5.3
			c-0.5,13.8-12.1,24.6-25.9,24c-13.8-0.5-24.6-12.1-24-25.9s12.1-24.6,25.9-24c5.4,0.2,10.6,2.2,14.8,5.6c1.8,1.4,4.3,1.7,6.4,0.8
			l49.4-22.4c2.2-1,3.6-3.2,3.5-5.6v-0.2c0-8.4,3.8-16.4,10.3-21.8c1.9-1.5,2.6-4,2-6.3L99.7,53.9c-0.6-2.2-2.4-3.9-4.6-4.3
			c-13.5-2.7-22.4-15.8-19.7-29.3S91.2-2.2,104.8,0.5s22.4,15.8,19.7,29.3c-1.1,5.4-3.8,10.3-7.9,13.9c-1.7,1.5-2.4,3.8-1.8,6
			l12.6,46.2c0.6,2.3,2.5,4,4.9,4.4c15.4,2.3,25.9,16.7,23.6,32c-0.3,2-0.8,4-1.5,5.8c-0.9,2.2-0.4,4.8,1.3,6.5l5.2,5.2
			c1.6,1.6,4,2.2,6.2,1.4c13.1-4.4,27.3,2.7,31.6,15.8C201.7,176.1,199.4,186,192.7,192.7L192.7,192.7z"/>
	</g>
</g>
</svg>
