<svg xmlns="http://www.w3.org/2000/svg" viewBox="0 0 500 500"><defs><style>.cls-1{fill:#ebe5fd;}.cls-2{fill:#c9b9fa;}.cls-3{fill:#ece7fd;}.cls-4{fill:#e9e2fd;}.cls-5{fill:#d3c6fb;}.cls-6{fill:#7751f1;}.cls-7{fill:#c4b3f9;}.cls-8{fill:#cebffa;}</style></defs><g id="Layer_2" data-name="Layer 2"><g id="Layer_3" data-name="Layer 3"><circle class="cls-1" cx="350" cy="50" r="50"/><circle class="cls-2" cx="150" cy="50" r="50"/><circle class="cls-3" cx="150" cy="250" r="50"/><circle class="cls-4" cx="350" cy="450" r="50"/><circle class="cls-5" cx="150" cy="450" r="50"/><path class="cls-6" d="M251.6,100a50,50,0,0,0-50.77,40.89,5,5,0,0,1-4.91,4.08H104.08a5,5,0,0,1-4.91-4.08,50,50,0,1,0,0,18.12,5,5,0,0,1,4.9-4h91.84a5,5,0,0,1,4.9,4,50,50,0,1,0,50.78-59Z"/><circle class="cls-7" cx="450" cy="150" r="50"/><path class="cls-6" d="M345.47,200.2a50,50,0,0,0-36.64,78.17,5,5,0,0,1-.6,6.33L284.7,308.23a5,5,0,0,1-6.33.6,50,50,0,1,0,12.8,12.8,5,5,0,0,1,.6-6.33l23.53-23.53a5,5,0,0,1,6.33-.6,50,50,0,1,0,23.84-91Z"/><circle class="cls-7" cx="50" cy="350" r="50"/><circle class="cls-8" cx="450" cy="350" r="50"/></g></g></svg>