<svg width="400" height="400" viewBox="0 0 400 400" fill="none" xmlns="http://www.w3.org/2000/svg">
<path d="M280.001 80C302.092 80 320.001 62.0914 320.001 40C320.001 17.9086 302.092 0 280.001 0C257.91 0 240.001 17.9086 240.001 40C240.001 62.0914 257.91 80 280.001 80Z" fill="#EEE9FD"/>
<path d="M120.001 80C142.092 80 160.001 62.0914 160.001 40C160.001 17.9086 142.092 0 120.001 0C97.9095 0 80.0009 17.9086 80.0009 40C80.0009 62.0914 97.9095 80 120.001 80Z" fill="#BEACF8"/>
<path d="M120.001 240C142.092 240 160.001 222.091 160.001 200C160.001 177.909 142.092 160 120.001 160C97.9095 160 80.0009 177.909 80.0009 200C80.0009 222.091 97.9095 240 120.001 240Z" fill="#F0EBFD"/>
<path d="M280.001 400C302.092 400 320.001 382.091 320.001 360C320.001 337.909 302.092 320 280.001 320C257.91 320 240.001 337.909 240.001 360C240.001 382.091 257.91 400 280.001 400Z" fill="#ECE7FD"/>
<path d="M120.001 400C142.092 400 160.001 382.091 160.001 360C160.001 337.909 142.092 320 120.001 320C97.9095 320 80.0009 337.909 80.0009 360C80.0009 382.091 97.9095 400 120.001 400Z" fill="#BEACF8"/>
<path d="M201.281 80C191.717 79.6934 182.361 82.8251 174.909 88.8269C167.457 94.8287 162.403 103.303 160.665 112.712C160.493 113.629 160.007 114.456 159.29 115.052C158.572 115.648 157.669 115.975 156.737 115.976H83.2649C82.3324 115.975 81.4294 115.648 80.7122 115.052C79.995 114.456 79.5085 113.629 79.3369 112.712C77.5288 102.899 72.1179 94.1152 64.1665 88.0863C56.215 82.0573 46.2973 79.218 36.36 80.1259C26.4227 81.0337 17.1836 85.6231 10.4562 92.993C3.72882 100.363 -0.000930786 109.981 -0.000930786 119.96C-0.000930786 129.939 3.72882 139.557 10.4562 146.927C17.1836 154.297 26.4227 158.886 36.36 159.794C46.2973 160.702 56.215 157.863 64.1665 151.834C72.1179 145.805 77.5288 137.021 79.3369 127.208C79.5213 126.305 80.0123 125.492 80.7266 124.909C81.4409 124.326 82.3348 124.008 83.2569 124.008H156.729C157.651 124.008 158.545 124.326 159.259 124.909C159.974 125.492 160.464 126.305 160.649 127.208C162.011 134.632 165.447 141.519 170.558 147.073C175.668 152.627 182.247 156.622 189.532 158.596C196.817 160.569 204.512 160.442 211.728 158.227C218.943 156.013 225.385 151.802 230.309 146.081C235.233 140.36 238.437 133.363 239.553 125.898C240.668 118.433 239.648 110.805 236.612 103.895C233.575 96.9846 228.645 91.0747 222.392 86.8478C216.139 82.621 208.817 80.2497 201.273 80.008L201.281 80Z" fill="#7751F1"/>
<path d="M360.001 160C382.092 160 400.001 142.091 400.001 120C400.001 97.9086 382.092 80 360.001 80C337.91 80 320.001 97.9086 320.001 120C320.001 142.091 337.91 160 360.001 160Z" fill="#C9B9F9"/>
<path d="M276.377 160.16C269.421 160.793 262.752 163.236 257.033 167.246C251.314 171.257 246.745 176.695 243.781 183.019C240.816 189.344 239.56 196.334 240.136 203.295C240.712 210.256 243.101 216.945 247.065 222.696C247.585 223.465 247.821 224.39 247.734 225.314C247.646 226.238 247.24 227.103 246.585 227.76L227.761 246.584C227.104 247.239 226.239 247.645 225.315 247.733C224.391 247.82 223.466 247.584 222.697 247.064C214.48 241.401 204.443 239.015 194.556 240.373C184.67 241.731 175.648 246.736 169.262 254.404C162.876 262.073 159.587 271.852 160.041 281.821C160.495 291.79 164.659 301.229 171.716 308.285C178.772 315.342 188.211 319.506 198.18 319.96C208.149 320.414 217.928 317.125 225.597 310.739C233.265 304.353 238.27 295.331 239.628 285.445C240.986 275.558 238.599 265.521 232.937 257.304C232.417 256.535 232.181 255.61 232.268 254.686C232.356 253.762 232.762 252.897 233.417 252.24L252.241 233.416C252.898 232.761 253.763 232.355 254.687 232.267C255.611 232.18 256.536 232.416 257.305 232.936C262.596 236.573 268.684 238.884 275.056 239.672C281.427 240.46 287.895 239.703 293.913 237.465C299.93 235.226 305.32 231.572 309.628 226.811C313.935 222.05 317.034 216.322 318.661 210.112C320.288 203.901 320.396 197.39 318.976 191.128C317.556 184.867 314.65 179.039 310.503 174.138C306.356 169.237 301.09 165.406 295.15 162.968C289.211 160.531 282.771 159.56 276.377 160.136V160.16Z" fill="#7751F1"/>
<path d="M40.0009 320C62.0923 320 80.0009 302.091 80.0009 280C80.0009 257.909 62.0923 240 40.0009 240C17.9095 240 0.000919342 257.909 0.000919342 280C0.000919342 302.091 17.9095 320 40.0009 320Z" fill="#C9B9F9"/>
<path d="M360.001 320C382.092 320 400.001 302.091 400.001 280C400.001 257.909 382.092 240 360.001 240C337.91 240 320.001 257.909 320.001 280C320.001 302.091 337.91 320 360.001 320Z" fill="#BEACF8"/>
</svg>
