<svg width="350" height="350" viewBox="0 0 350 350" fill="none" xmlns="http://www.w3.org/2000/svg">
<path d="M127.268 46.4768C126.676 46.469 126.098 46.2896 125.606 45.9603C125.113 45.6309 124.727 45.1659 124.494 44.6214C124.261 44.077 124.19 43.4765 124.291 42.8928C124.392 42.3092 124.661 41.7674 125.063 41.3331C138.103 28.1993 153.619 17.7832 170.713 10.6882C187.807 3.59323 206.138 -0.0396668 224.646 -4.55858e-05C225.458 -4.55858e-05 226.236 0.322527 226.811 0.89671C227.385 1.47089 227.707 2.24965 227.707 3.06167C227.707 3.87369 227.385 4.65245 226.811 5.22663C226.236 5.80081 225.458 6.12338 224.646 6.12338C206.949 6.07489 189.419 9.53662 173.069 16.3082C156.72 23.0799 141.876 33.0269 129.396 45.5736C128.832 46.1411 128.068 46.4653 127.268 46.4768Z" fill="#EFEFEF"/>
<path d="M23.3991 345.147C22.5906 345.148 21.8147 344.829 21.2406 344.259C7.77262 330.752 0.209656 312.456 0.209656 293.381C0.209656 274.307 7.77262 256.011 21.2406 242.503C21.5251 242.219 21.8628 241.993 22.2345 241.839C22.6062 241.685 23.0045 241.606 23.4068 241.606C23.8091 241.606 24.2074 241.685 24.5791 241.839C24.9508 241.993 25.2885 242.219 25.573 242.503C25.8574 242.788 26.0831 243.125 26.237 243.497C26.391 243.869 26.4702 244.267 26.4702 244.669C26.4702 245.072 26.391 245.47 26.237 245.842C26.0831 246.213 25.8574 246.551 25.573 246.836C13.251 259.192 6.33158 275.931 6.33158 293.381C6.33158 310.832 13.251 327.57 25.573 339.927C25.9995 340.356 26.2893 340.902 26.4059 341.495C26.5225 342.089 26.4606 342.704 26.228 343.263C25.9954 343.821 25.6026 344.298 25.0992 344.633C24.5957 344.969 24.0041 345.148 23.3991 345.147Z" fill="#EDEDED"/>
<path d="M224.309 281.678C212.112 281.689 199.966 280.104 188.181 276.963C187.765 276.889 187.368 276.731 187.016 276.497C186.664 276.263 186.365 275.959 186.136 275.603C185.908 275.248 185.755 274.849 185.688 274.432C185.621 274.015 185.641 273.588 185.747 273.179C185.853 272.77 186.043 272.388 186.304 272.056C186.565 271.723 186.892 271.449 187.264 271.249C187.637 271.049 188.046 270.929 188.467 270.895C188.889 270.862 189.312 270.916 189.712 271.054C200.999 274.051 212.63 275.563 224.309 275.554C260.117 275.513 294.467 261.361 319.911 236.165C320.921 235.155 321.916 234.129 322.881 233.104C323.443 232.544 324.2 232.225 324.993 232.212C325.786 232.2 326.552 232.496 327.132 233.037C327.711 233.579 328.057 234.324 328.098 235.116C328.139 235.908 327.871 236.684 327.351 237.283C326.341 238.354 325.3 239.426 324.289 240.498C297.686 266.855 261.758 281.653 224.309 281.678Z" fill="#EDEDED"/>
<path d="M72.1569 350C60.9587 349.995 50.0132 346.671 40.7035 340.448C31.3937 334.225 24.1376 325.381 19.8518 315.036C15.5661 304.69 14.4432 293.306 16.625 282.323C18.8068 271.339 24.1953 261.248 32.1097 253.326L105.361 180.029C98.2051 157.951 97.268 134.328 102.653 111.752C108.037 89.1768 119.536 68.5204 135.887 52.0491C147.521 40.3573 161.36 31.0898 176.601 24.7832C191.841 18.4766 208.182 15.2562 224.676 15.3085H224.906C241.424 15.3003 257.779 18.5737 273.021 24.9387C288.263 31.3036 302.089 40.6333 313.696 52.3859C360.8 99.8425 361.918 178.039 316.16 226.735C315.257 227.7 314.323 228.664 313.39 229.598C296.931 245.959 276.284 257.471 253.714 262.872C231.144 268.273 207.522 267.354 185.44 260.215L112.174 333.436C106.927 338.701 100.689 342.875 93.8211 345.718C86.953 348.561 79.5901 350.016 72.1569 350ZM224.646 21.4319C208.959 21.3892 193.42 24.4589 178.928 30.4633C164.436 36.4677 151.279 45.2876 140.219 56.412C124.451 72.2979 113.432 92.2713 108.404 114.082C103.376 135.893 104.538 158.675 111.76 179.86C111.945 180.402 111.974 180.985 111.844 181.542C111.714 182.1 111.43 182.61 111.025 183.014L36.3961 257.659C26.9178 267.133 21.5914 279.984 21.5885 293.386C21.5856 306.787 26.9066 319.641 36.3808 329.119C45.855 338.597 58.7064 343.924 72.1079 343.927C85.5093 343.929 98.363 338.609 107.841 329.134L182.471 254.49C182.878 254.084 183.391 253.802 183.952 253.675C184.512 253.548 185.097 253.581 185.639 253.77C206.826 260.992 229.609 262.153 251.421 257.122C273.232 252.091 293.205 241.069 309.088 225.296C309.991 224.408 310.864 223.505 311.721 222.587C355.243 176.217 354.202 101.833 309.44 56.6416C298.387 45.4661 285.224 36.5984 270.714 30.5539C256.205 24.5095 240.639 21.4088 224.921 21.4319H224.646Z" fill="#E4E1EF"/>
<path d="M72.157 334.691C63.986 334.687 55.9996 332.261 49.2068 327.72C42.4139 323.179 37.1194 316.727 33.9921 309.178C30.8647 301.629 30.045 293.323 31.6363 285.308C33.2277 277.294 37.1588 269.931 42.9329 264.149L123.196 183.887C114.708 163.661 112.416 141.37 116.61 119.84C120.804 98.3098 131.296 78.5096 146.756 62.9488C156.958 52.6795 169.094 44.5346 182.464 38.985C195.833 33.4354 210.17 30.5913 224.646 30.6171H224.845C239.367 30.5962 253.749 33.4642 267.153 39.0543C280.556 44.6444 292.714 52.8449 302.918 63.1785C344.252 104.833 345.247 173.507 305.077 216.264C304.281 217.106 303.47 217.948 302.643 218.775C287.084 234.237 267.284 244.732 245.754 248.929C224.224 253.126 201.933 250.836 181.705 242.35L101.335 322.598C97.5083 326.436 92.9605 329.481 87.9531 331.557C82.9457 333.632 77.5774 334.697 72.157 334.691ZM224.646 36.7405C210.97 36.7033 197.423 39.3793 184.789 44.6138C172.155 49.8483 160.684 57.5372 151.042 67.2352C136.192 82.1742 126.201 101.25 122.377 121.964C118.552 142.678 121.074 164.064 129.61 183.32C129.866 183.893 129.941 184.53 129.823 185.146C129.705 185.762 129.401 186.327 128.952 186.765L47.2193 268.482C40.6156 275.086 36.9056 284.042 36.9056 293.381C36.9056 302.72 40.6156 311.677 47.2193 318.281C53.823 324.884 62.7796 328.594 72.1187 328.594C81.4578 328.594 90.4144 324.884 97.0181 318.281L178.751 236.533C179.189 236.095 179.75 235.801 180.36 235.688C180.97 235.576 181.599 235.652 182.164 235.905C201.423 244.447 222.812 246.971 243.529 243.147C264.247 239.322 283.326 229.328 298.265 214.473C299.045 213.692 299.796 212.942 300.576 212.1C338.511 171.716 337.592 106.854 298.525 67.5261C288.898 57.7624 277.423 50.0121 264.771 44.7267C252.119 39.4414 238.541 36.7266 224.829 36.7405H224.646Z" fill="#BDB1EF"/>
<path d="M72.157 319.398C67.0191 319.386 61.9998 317.852 57.7318 314.992C53.4638 312.132 50.1379 308.072 48.1734 303.324C46.2089 298.577 45.6937 293.354 46.6926 288.314C47.6915 283.274 50.1599 278.643 53.7867 275.003L141.78 187.025C133.735 172.582 129.603 156.288 129.791 139.756C129.98 123.225 134.483 107.03 142.855 92.7738C151.228 78.518 163.178 66.6963 177.524 58.4792C191.87 50.2622 208.113 45.9349 224.646 45.9257H224.814C237.312 45.9115 249.689 48.3822 261.223 53.1942C272.758 58.0063 283.221 65.0636 292.003 73.9557C327.627 109.824 328.468 168.961 293.871 205.778C293.182 206.513 292.478 207.309 291.774 207.952C277.192 222.567 258.238 232.023 237.791 234.883C217.344 237.743 196.523 233.85 178.49 223.796L90.5273 311.774C88.1216 314.197 85.2593 316.118 82.106 317.427C78.9527 318.736 75.571 319.406 72.157 319.398ZM224.646 52.0492C208.986 52.0386 193.601 56.1701 180.053 64.0244C166.506 71.8787 155.276 83.1764 147.504 96.7716C139.731 110.367 135.693 125.776 135.798 141.435C135.904 157.095 140.149 172.448 148.103 185.938C148.453 186.523 148.598 187.208 148.515 187.885C148.432 188.561 148.125 189.191 147.644 189.673L58.0425 279.305C54.3092 283.038 52.2119 288.102 52.2119 293.381C52.2119 298.661 54.3092 303.724 58.0425 307.457C61.7757 311.191 66.8391 313.288 72.1187 313.288C77.3983 313.288 82.4617 311.191 86.1949 307.457L175.827 217.81C176.306 217.33 176.932 217.023 177.605 216.937C178.279 216.851 178.962 216.991 179.547 217.336C196.508 227.343 216.318 231.421 235.854 228.927C255.389 226.432 273.539 217.507 287.441 203.558C288.1 202.9 288.758 202.226 289.416 201.522C321.763 167.078 320.983 111.768 287.656 78.2115C279.437 69.9048 269.649 63.3144 258.861 58.8231C248.073 54.3318 236.5 52.0292 224.814 52.0492H224.646Z" fill="#9681EF"/>
<path d="M281.15 84.7483C273.784 77.2899 265.009 71.3702 255.335 67.3335C245.661 63.2968 235.281 61.2235 224.799 61.2343H224.646C210.131 61.2339 195.892 65.2019 183.47 72.7092C171.048 80.2165 160.914 90.9774 154.166 103.828C147.418 116.678 144.311 131.129 145.182 145.618C146.054 160.106 150.87 174.081 159.11 186.03C159.691 186.912 159.951 187.968 159.845 189.019C159.739 190.07 159.274 191.053 158.528 191.801L64.5027 285.796C62.9991 287.299 61.9768 289.216 61.5656 291.302C61.1545 293.388 61.3731 295.549 62.1938 297.51C63.0144 299.471 64.4 301.144 66.1741 302.316C67.9483 303.488 70.0309 304.105 72.1569 304.09C73.5717 304.11 74.9766 303.85 76.2903 303.324C77.604 302.799 78.8007 302.018 79.8112 301.028L173.806 207.033C174.564 206.279 175.561 205.813 176.626 205.715C177.69 205.617 178.756 205.894 179.638 206.497C195.327 217.293 214.365 222.106 233.299 220.064C252.233 218.022 269.808 209.26 282.834 195.368C311.721 164.414 310.971 114.814 281.15 84.7483ZM270.311 186.489C261.32 195.483 249.863 201.608 237.391 204.09C224.918 206.572 211.99 205.299 200.24 200.433C188.491 195.568 178.448 187.327 171.383 176.753C164.317 166.179 160.546 153.747 160.546 141.03C160.546 128.313 164.317 115.881 171.383 105.308C178.448 94.734 188.491 86.493 200.24 81.627C211.99 76.7611 224.918 75.4887 237.391 77.9708C249.863 80.4529 261.32 86.578 270.311 95.5714C276.335 101.511 281.119 108.588 284.384 116.392C287.649 124.196 289.33 132.571 289.33 141.03C289.33 149.49 287.649 157.865 284.384 165.669C281.119 173.473 276.335 180.55 270.311 186.489Z" fill="#7751F1"/>
<path d="M179.929 134.501C179.716 134.531 179.5 134.531 179.286 134.501C178.493 134.332 177.799 133.855 177.357 133.175C176.915 132.495 176.761 131.667 176.929 130.873C178.906 121.629 183.515 113.154 190.201 106.471C190.486 106.187 190.824 105.961 191.195 105.807C191.567 105.653 191.965 105.574 192.368 105.574C192.77 105.574 193.168 105.653 193.54 105.807C193.912 105.961 194.249 106.187 194.534 106.471C194.818 106.756 195.044 107.093 195.198 107.465C195.352 107.837 195.431 108.235 195.431 108.637C195.431 109.04 195.352 109.438 195.198 109.81C195.044 110.181 194.818 110.519 194.534 110.803C188.678 116.641 184.647 124.055 182.93 132.144C182.77 132.818 182.387 133.419 181.842 133.847C181.297 134.275 180.622 134.506 179.929 134.501Z" fill="#7751F1"/>
</svg>
