<svg width="110" height="72" viewBox="0 0 110 72" fill="none" xmlns="http://www.w3.org/2000/svg">
<path d="M44.0218 43.7824C42.2079 40.0519 37.5826 28.933 42.5344 26.3754C47.0872 24.0114 50.8902 34.562 52.1237 36.2791C52.5832 36.9321 53.085 37.2646 54.5421 37.3009C56.3016 37.3432 57.4927 37.1074 57.9038 36.2428C59.5968 32.7481 64.4942 21.4357 69.6213 22.7658C77.3847 24.7853 71.6347 39.9431 70.0144 44.2359C69.4097 45.7958 73.8114 45.1065 73.9686 44.8405C75.3108 42.7062 78.9446 33.7578 79.3074 27.2098C79.5976 21.9798 78.1586 13.6361 69.9841 13.6603C59.754 13.6905 54.9412 28.8483 54.8686 28.7032C54.3849 27.6391 46.9179 14.1742 38.4532 19.7125C33.6163 22.8989 31.7057 34.7857 39.4811 46.4125C40.1341 47.392 41.6517 47.5371 42.9093 47.7124C45.4305 48.0631 44.9771 45.7777 44.0218 43.7824Z" fill="#888888"/>
<path d="M70.6613 2.42039C71.117 3.42813 71.2455 4.55335 71.0286 5.63787C70.8117 6.72238 70.2603 7.71165 69.4521 8.46659C67.6382 10.2804 64.9779 11.4897 62.8859 13.0738C60.7647 14.651 58.918 16.5672 57.4201 18.7451C56.3708 20.2891 55.6561 22.0356 55.3221 23.8723C54.3755 21.7151 53.9113 19.3772 53.9617 17.022C53.9598 14.4915 54.4892 11.9888 55.5156 9.67583C57.1541 5.99974 60.413 1.36231 65.0565 0.201441C67.475 -0.403179 69.7483 0.358642 70.6613 2.41435" fill="#888888"/>
<path d="M37.7156 11.1088C37.6238 11.9081 37.7851 12.716 38.1766 13.4189C38.5682 14.1217 39.1703 14.6841 39.8983 15.0267C41.5791 15.8732 43.659 16.1029 45.4547 16.7317C47.2886 17.3358 49.0091 18.241 50.5456 19.4102C51.6125 20.2437 52.4974 21.2869 53.1455 22.4756C53.3073 20.7768 53.1011 19.0631 52.5409 17.4512C51.9688 15.691 51.0313 14.0716 49.7898 12.6989C47.8369 10.5223 44.5478 8.0615 41.0833 8.30334C39.2997 8.43031 37.8909 9.46421 37.7156 11.0846" fill="#888888"/>
<path d="M16.3423 71.1112H15.9674C15.852 71.1107 15.7381 71.0851 15.6337 71.036C15.5293 70.9869 15.4368 70.9156 15.3628 70.827C15.3052 70.7248 15.2702 70.6114 15.26 70.4945C15.2281 69.9703 15.2423 69.4442 15.3024 68.9225C15.3689 68.3179 15.4656 67.6165 15.5926 66.8789C15.7195 66.1412 15.8767 65.3855 16.0521 64.5934C16.2274 63.8014 16.4028 63.0395 16.5902 62.2596C16.9832 60.6332 17.4427 58.8858 17.9566 57.0719C16.96 58.4615 16.0435 59.9069 15.2117 61.401C14.3894 62.8884 13.7243 64.2185 13.2285 65.3492C12.6876 66.5632 12.2212 67.809 11.8318 69.0797V69.116C11.747 69.2775 11.6138 69.4086 11.4509 69.4908C11.2959 69.5744 11.1315 69.6393 10.9612 69.6843C10.7979 69.7372 10.6298 69.7737 10.4593 69.7931C10.3021 69.7931 10.1752 69.8294 10.0724 69.8355C9.82807 69.8746 9.57908 69.8746 9.33476 69.8355L9.12919 69.775C9.06178 69.7654 8.99818 69.7379 8.94502 69.6953C8.89185 69.6528 8.85105 69.5968 8.82688 69.5332C8.81045 69.4822 8.8003 69.4294 8.79665 69.3759C8.84232 68.825 8.85242 68.2716 8.82688 67.7193C8.82688 67.0542 8.75432 66.3468 8.69386 65.6092C8.65154 65.1255 8.59108 64.4846 8.51248 63.6744C8.43387 62.8642 8.34923 62.054 8.25854 61.2559C8.16784 60.4578 8.07715 59.6597 7.98041 58.9644C7.9139 58.4384 7.85344 58.0393 7.80507 57.7552C7.62368 58.3598 7.45439 58.9644 7.29719 59.569C7.13999 60.1736 6.96465 60.7783 6.83163 61.3829C6.45072 62.9247 6.15446 64.2851 5.95494 65.4217C5.75541 66.5584 5.59216 67.544 5.48333 68.33C5.36241 69.249 5.28985 70.041 5.26567 70.688C5.26828 70.8206 5.21828 70.9488 5.12661 71.0447C5.0822 71.0977 5.02903 71.1427 4.96941 71.1777C4.38805 71.4433 3.77998 71.646 3.15555 71.7823C2.68626 71.8808 2.21193 71.9535 1.73469 72H1.34773H1.00915C0.942942 71.991 0.87583 71.991 0.809624 72H0.743115C0.422667 71.9154 0.374298 71.7158 0.368251 71.6312V71.5828C0.365813 71.5388 0.373232 71.4948 0.389968 71.454C0.406704 71.4132 0.432334 71.3766 0.464991 71.347C0.797958 70.8286 1.08137 70.28 1.31146 69.7085C1.61377 69.0011 1.98863 68.0035 2.42396 66.7459C2.85928 65.4882 3.36112 63.7953 3.91737 61.7215C4.23782 60.6392 4.52199 59.5267 4.77593 58.4142C4.99359 57.4529 5.19311 56.3948 5.38055 55.2823C5.54939 54.2309 5.62626 53.1667 5.6103 52.102C5.60755 52.0414 5.62003 51.9811 5.64658 51.9266C5.69039 51.8147 5.76348 51.7165 5.8582 51.6425C6.30717 51.4473 6.76995 51.2856 7.24277 51.1588C7.6781 51.0378 8.21017 50.9169 8.83897 50.802C9.55476 50.6692 10.2774 50.5764 11.0035 50.5239C11.075 50.5062 11.1497 50.5062 11.2212 50.5239C11.2885 50.5439 11.3479 50.5843 11.3912 50.6396C11.4346 50.6948 11.4597 50.7621 11.463 50.8323C11.463 50.8685 11.463 50.8988 11.4207 51.7573C11.3964 52.6881 11.4368 53.6195 11.5416 54.5446C11.6021 55.2944 11.7049 56.1711 11.8318 57.1626C11.9588 58.1542 12.1462 59.3151 12.3941 60.609C12.3941 60.609 12.3941 60.609 12.3941 60.6513C13.2164 59.4421 14.0145 58.2328 14.7582 57.0236C15.0786 56.5157 15.4051 55.9655 15.7256 55.4032C16.046 54.8409 16.3665 54.2726 16.6567 53.7042C16.9469 53.1359 17.219 52.5857 17.4729 52.0415C17.6993 51.5562 17.9011 51.0598 18.0776 50.5541C18.0826 50.5128 18.0928 50.4721 18.1078 50.4332C18.1685 50.3198 18.2638 50.2288 18.3799 50.1732H18.4101C18.8164 50.03 19.2302 49.9089 19.6496 49.8105C20.0305 49.7137 20.4658 49.617 20.9314 49.5263C21.6489 49.3879 22.3773 49.313 23.108 49.3026C23.3477 49.2906 23.5878 49.2906 23.8275 49.3026C23.9102 49.2994 23.9914 49.325 24.0572 49.3751C24.0991 49.4079 24.1336 49.449 24.1586 49.4958C24.1835 49.5427 24.1985 49.5943 24.2023 49.6472C24.2124 49.7498 24.1913 49.853 24.1419 49.9435C23.8478 50.5329 23.5874 51.1385 23.3619 51.7573C23.1322 52.362 22.8722 53.1359 22.5699 54.0488C22.2676 54.9618 21.9653 56.032 21.6629 57.2473C21.5299 57.7854 21.3848 58.4142 21.2276 59.1095C21.0704 59.8048 20.9253 60.5122 20.7862 61.2317C20.6472 61.9512 20.5263 62.6647 20.4174 63.3298C20.3086 63.9948 20.23 64.5995 20.1756 65.1436C20.1268 65.6217 20.1026 66.102 20.103 66.5826C20.103 67.0058 20.103 67.3807 20.1514 67.7132C20.1772 68.1005 20.2358 68.4848 20.3267 68.862C20.363 69.0011 20.3993 69.116 20.4235 69.2067C20.455 69.2644 20.4736 69.3284 20.4779 69.3941C20.4838 69.4596 20.4761 69.5257 20.4553 69.5881C20.4345 69.6505 20.401 69.708 20.357 69.7569C20.3137 69.8126 20.2603 69.8597 20.1998 69.8959C19.4713 70.2976 18.6982 70.6122 17.8962 70.8331C17.3963 70.9653 16.8869 71.0583 16.3725 71.1112" fill="#888888"/>
<path d="M35.2971 56.3101C35.3471 57.0861 35.2654 57.865 35.0553 58.6137C34.8376 59.4844 34.5897 60.4276 34.3116 61.3708C34.0335 62.314 33.7916 63.3237 33.586 64.3455C33.3846 65.3112 33.3215 66.3006 33.3986 67.284C33.4185 67.4877 33.4528 67.6898 33.5014 67.8886C33.5373 68.0596 33.614 68.2193 33.7251 68.3542L33.7856 68.4086C33.7856 68.4086 33.8218 68.469 33.8279 68.5476C33.8424 68.5846 33.8424 68.6256 33.8279 68.6625C33.8102 68.6685 33.7911 68.6685 33.7735 68.6625C33.3718 69.0028 32.9077 69.2616 32.407 69.4243C32.0122 69.5406 31.6074 69.6196 31.1978 69.6601C30.9461 69.6769 30.6937 69.6769 30.442 69.6601C30.3564 69.6562 30.2727 69.633 30.1973 69.5921C30.1219 69.5513 30.0568 69.4939 30.0067 69.4243C29.9105 69.2739 29.8467 69.105 29.8193 68.9285C29.783 68.723 29.7588 68.5174 29.7346 68.3239C29.7104 68.1304 29.7044 67.8342 29.7044 67.6407C29.7111 67.5259 29.7111 67.4109 29.7044 67.2961C29.7044 67.1872 29.65 67.1328 29.5774 67.1389C29.5294 67.1528 29.4843 67.1753 29.4444 67.2054C29.4131 67.2233 29.3846 67.2457 29.3597 67.2719C29.042 67.7163 28.6563 68.108 28.217 68.4328C27.8629 68.6943 27.4818 68.9172 27.0803 69.0978C26.7665 69.2347 26.4406 69.342 26.1069 69.4183C25.8167 69.4787 25.593 69.515 25.4418 69.5332C24.9892 69.5831 24.5313 69.5165 24.1116 69.3397C23.7467 69.1771 23.4225 68.9355 23.1624 68.6323C22.9018 68.3303 22.6971 67.9843 22.5578 67.6105C22.4206 67.2345 22.3332 66.8422 22.2978 66.4436C22.2086 65.583 22.2929 64.7134 22.5457 63.886C22.7824 63.1442 23.1488 62.4502 23.628 61.8364C24.0968 61.2387 24.6509 60.7131 25.2725 60.2764C25.8954 59.8362 26.562 59.4614 27.2617 59.1579C27.9484 58.8624 28.6582 58.6238 29.3839 58.4444C30.0127 58.287 30.6508 58.1699 31.2945 58.0938C31.3686 58.0889 31.4407 58.0683 31.5061 58.0333L31.621 57.9245C31.6373 57.9089 31.65 57.8901 31.6583 57.8693C31.6667 57.8484 31.6704 57.826 31.6694 57.8035C31.772 57.4669 31.8169 57.1153 31.8024 56.7636C31.7951 56.483 31.6903 56.2136 31.5061 56.0018C31.3359 55.8351 31.1287 55.7108 30.9015 55.639C30.6415 55.5587 30.368 55.532 30.0974 55.5604C29.7 55.5864 29.3107 55.6848 28.9486 55.8506C28.6536 55.9917 28.3723 56.1597 28.1082 56.3525C27.8561 56.5423 27.6357 56.7708 27.4552 57.0296C27.4144 57.0901 27.3618 57.1417 27.3004 57.1812C27.2391 57.2207 27.1704 57.2473 27.0985 57.2594C27.0454 57.2574 26.9938 57.2413 26.9491 57.2125C26.9045 57.1838 26.8683 57.1436 26.8445 57.0961C26.7596 56.9606 26.6887 56.8167 26.6329 56.6669C26.5735 56.5097 26.527 56.3479 26.4938 56.1832C26.4576 56.0199 26.4394 55.9111 26.4334 55.8567C26.4244 55.6915 26.4244 55.526 26.4334 55.3609C26.4351 55.2185 26.4513 55.0767 26.4818 54.9377C26.4818 54.8046 26.5241 54.6777 26.5362 54.5628L26.5785 54.4479C26.5982 54.4037 26.6247 54.3629 26.6571 54.327C26.6866 54.2901 26.7212 54.2575 26.7599 54.2302C27.0538 54.0613 27.3637 53.9215 27.6849 53.8131C28.5129 53.5078 29.3802 53.3226 30.2606 53.2629C30.5932 53.2084 31.0406 53.2084 31.5847 53.2084C32.1245 53.2005 32.6619 53.2823 33.1749 53.4503C33.7124 53.627 34.194 53.9418 34.5716 54.3633C35.0245 54.9104 35.2801 55.594 35.2971 56.3041M30.9378 60.6815C30.9378 60.5727 30.8955 60.5062 30.835 60.4941C30.8071 60.4881 30.7783 60.4881 30.7504 60.4941C30.19 60.5406 29.6376 60.6563 29.1058 60.8387C28.5973 61.0162 28.1274 61.2892 27.7212 61.6429C27.3252 61.9841 27.0075 62.4069 26.7901 62.8824C26.5577 63.4293 26.4722 64.0275 26.5422 64.6176C26.5742 64.9053 26.6603 65.1843 26.7962 65.4399C26.8861 65.5846 27.0187 65.6978 27.1758 65.7639C27.3328 65.83 27.5065 65.8456 27.6729 65.8087C28.2461 65.7603 28.7768 65.4863 29.1481 65.0469C29.5667 64.5786 29.9168 64.0534 30.1881 63.487C30.4471 62.9554 30.6498 62.3981 30.7927 61.8243C30.901 61.4532 30.954 61.0681 30.9499 60.6815" fill="#888888"/>
<path d="M48.1272 52.8699C48.1813 53.4583 48.1322 54.0517 47.982 54.6232C47.8475 55.1668 47.6443 55.6909 47.3774 56.1832C47.148 56.6036 46.8588 56.9885 46.5189 57.3259C46.282 57.5856 45.9647 57.7581 45.618 57.8156C45.5451 57.8283 45.4703 57.8221 45.4004 57.7978C45.3306 57.7734 45.2682 57.7317 45.2189 57.6766C45.1446 57.5688 45.0989 57.444 45.0859 57.3138C45.1023 57.0379 45.1023 56.7613 45.0859 56.4855C45.0777 56.2231 44.9843 55.9706 44.8199 55.766C44.7562 55.6793 44.6704 55.6112 44.5716 55.5686C44.4728 55.5261 44.3644 55.5108 44.2576 55.5241C43.9907 55.5615 43.7342 55.6526 43.5035 55.7919C43.2729 55.9311 43.0728 56.1156 42.9153 56.3343C42.4816 56.8507 42.1046 57.4122 41.7907 58.0091C41.4818 58.5823 41.2132 59.1763 40.9866 59.7867C40.781 60.355 40.648 60.7299 40.5875 60.9052C40.249 62.0782 39.9829 63.094 39.8076 63.9646C39.6322 64.8353 39.4932 65.5608 39.4146 66.1412C39.327 66.7112 39.2906 67.2879 39.3058 67.8644C39.3084 67.9638 39.2787 68.0614 39.2211 68.1425L39.082 68.2514C38.3142 68.602 36.0589 68.9225 35.4241 68.1244C35.152 67.7737 35.678 65.579 35.8473 65.0288C36.0166 64.4785 36.1738 63.9404 36.3189 63.3902C36.6656 62.1246 37.0042 60.7742 37.3347 59.3393C37.6366 58.0715 37.8527 56.7847 37.9816 55.4879C38.0444 54.8712 38.0606 54.2507 38.03 53.6317C38.0253 53.5118 38.0112 53.3926 37.9877 53.2749C37.9837 53.2246 37.9837 53.1741 37.9877 53.1238C37.9877 53.0769 37.9986 53.0306 38.0196 52.9886C38.0406 52.9466 38.0711 52.9101 38.1086 52.8819C38.3873 52.7176 38.6808 52.58 38.9853 52.4708C39.3285 52.3365 39.6825 52.2313 40.0434 52.1564C40.5079 52.0582 40.9786 51.9915 41.4522 51.9569L41.7968 51.9266C41.9117 51.9266 42.0386 51.9266 42.1958 51.9266C42.353 51.9266 42.3107 51.969 42.3228 52.0597C42.3091 52.2044 42.2766 52.3466 42.2261 52.4829C42.1596 52.7066 42.093 52.9545 42.0205 53.2266L41.821 54.0428C41.7643 54.2597 41.7419 54.4841 41.7545 54.7079C41.7545 54.8409 41.8149 54.9014 41.9117 54.8953C41.9628 54.885 42.0106 54.8622 42.0507 54.8288C42.1279 54.7538 42.1969 54.6707 42.2563 54.5809C42.6929 53.9948 43.1805 53.4485 43.7134 52.9485C44.1735 52.5163 44.6759 52.1315 45.2129 51.7997C45.7275 51.4614 46.317 51.2539 46.93 51.1951C47.0165 51.1872 47.1035 51.1872 47.19 51.1951C47.3197 51.2232 47.4366 51.2934 47.5225 51.3946C47.6728 51.5348 47.794 51.7033 47.8793 51.8904C48.0202 52.1993 48.1042 52.5311 48.1272 52.8699Z" fill="#888888"/>
<path d="M58.3331 54.4177C58.377 55.1935 58.2954 55.9714 58.0913 56.7213C57.8736 57.604 57.6257 58.5291 57.3476 59.4965C57.0695 60.4639 56.8276 61.4554 56.6221 62.4712C56.4144 63.438 56.3513 64.4303 56.4346 65.4157C56.4528 65.6192 56.4851 65.8213 56.5314 66.0203C56.5706 66.1913 56.6493 66.3507 56.7611 66.4859L56.8216 66.5403C56.8493 66.5814 56.864 66.6298 56.8639 66.6794C56.8763 66.7166 56.8763 66.7569 56.8639 66.7942C56.8521 66.8112 56.8351 66.8239 56.8155 66.8305C56.4173 67.1497 55.9617 67.3898 55.4733 67.5379C55.0794 67.658 54.6742 67.737 54.264 67.7737C54.0125 67.7929 53.7598 67.7929 53.5083 67.7737C53.4232 67.7674 53.3404 67.7431 53.2654 67.7024C53.1903 67.6618 53.1248 67.6057 53.0729 67.5379C52.9737 67.3867 52.9097 67.2153 52.8855 67.0361C52.8492 66.8305 52.819 66.6249 52.8009 66.4315C52.7827 66.238 52.8009 65.9417 52.8009 65.7482C52.8009 65.5548 52.8009 65.4459 52.8009 65.4097C52.8009 65.3734 52.7464 65.2404 52.6739 65.2464C52.6238 65.2597 52.5766 65.2823 52.5348 65.3129C52.5064 65.3323 52.48 65.3545 52.4562 65.3794C52.1352 65.8228 51.7501 66.2161 51.3135 66.5463C50.9587 66.8085 50.5753 67.0296 50.1708 67.2054C49.8573 67.3431 49.5313 67.4504 49.1973 67.5258C48.9805 67.5791 48.7603 67.6175 48.5383 67.6407C48.1134 67.6917 47.6825 67.6361 47.2846 67.4788C46.8866 67.3215 46.5341 67.0675 46.2589 66.7398C45.9974 66.4385 45.7925 66.0923 45.6543 65.718C45.5171 65.342 45.4297 64.9497 45.3943 64.5511C45.3022 63.6906 45.3866 62.8204 45.6422 61.9936C45.8769 61.2539 46.2413 60.5619 46.7184 59.9499C47.1892 59.3501 47.7453 58.8225 48.369 58.384C48.9907 57.947 49.6552 57.5743 50.3521 57.2715C51.0255 56.9736 51.7234 56.7349 52.4381 56.558C53.0569 56.4074 53.6851 56.2983 54.3185 56.2315C54.3911 56.2296 54.4619 56.2088 54.524 56.1711C54.5698 56.1414 54.6106 56.1046 54.6449 56.0622C54.6737 56.0282 54.6907 55.9858 54.6933 55.9413C54.7979 55.605 54.8449 55.2534 54.8324 54.9014C54.8237 54.6228 54.719 54.3559 54.5361 54.1456C54.3655 53.9779 54.1586 53.8517 53.9315 53.7768C53.6715 53.6965 53.398 53.6698 53.1274 53.6982C52.731 53.7232 52.3432 53.8237 51.9846 53.9944C51.6882 54.1318 51.4049 54.2957 51.1382 54.4842C50.8902 54.6809 50.6704 54.9108 50.4852 55.1674C50.4453 55.2274 50.3937 55.2788 50.3334 55.3183C50.2731 55.3578 50.2055 55.3846 50.1345 55.3972C50.0805 55.3956 50.0279 55.3797 49.9822 55.351C49.9365 55.3223 49.8993 55.2819 49.8745 55.2339C49.7917 55.1002 49.7228 54.9584 49.6689 54.8107C49.6111 54.6504 49.5627 54.4868 49.5238 54.3209C49.4956 54.1637 49.4775 54.0549 49.4694 53.9944C49.4574 53.8294 49.4574 53.6637 49.4694 53.4987C49.4677 53.3581 49.484 53.2179 49.5178 53.0815C49.5417 52.9556 49.5578 52.8284 49.5661 52.7006L49.6145 52.5857C49.6333 52.541 49.6599 52.5 49.6931 52.4647C49.7195 52.4266 49.7548 52.3954 49.7959 52.3741C50.0819 52.202 50.3861 52.0621 50.7028 51.9569C51.0651 51.8192 51.4369 51.708 51.8153 51.6243C52.3028 51.5115 52.7979 51.4347 53.2966 51.3946C53.6352 51.3946 54.0766 51.3522 54.6147 51.3462C55.1564 51.3387 55.6957 51.4204 56.2109 51.5881C56.7473 51.767 57.2284 52.0815 57.6076 52.501C58.0555 53.0417 58.3108 53.716 58.3331 54.4177ZM53.9738 58.8012C53.9738 58.6863 53.9255 58.6258 53.871 58.6077C53.8411 58.6021 53.8103 58.6021 53.7803 58.6077C53.2214 58.6539 52.6707 58.7718 52.1418 58.9584C51.6328 59.1318 51.1625 59.4029 50.7572 59.7565C50.3569 60.1023 50.037 60.5315 49.8201 61.0141C49.5906 61.5618 49.5053 62.1592 49.5722 62.7493C49.6027 63.0381 49.6911 63.3178 49.8322 63.5716C49.9208 63.7177 50.0533 63.832 50.2107 63.8982C50.3682 63.9644 50.5425 63.9792 50.7089 63.9404C50.9929 63.9171 51.2695 63.8378 51.5227 63.707C51.7759 63.5763 52.0007 63.3967 52.1841 63.1786C52.6037 62.7146 52.9521 62.1909 53.218 61.6247C53.4767 61.0929 53.6793 60.5357 53.8227 59.962C53.9275 59.5922 53.9804 59.2097 53.9799 58.8253" fill="#888888"/>
<path d="M70.5283 51.1346C70.5672 51.5468 70.5672 51.9618 70.5283 52.374C70.4903 52.7878 70.3968 53.1945 70.2502 53.5833C70.1286 53.9169 69.9484 54.2261 69.7181 54.4963C69.5217 54.7288 69.2413 54.8744 68.9381 54.9014C68.8392 54.9076 68.7411 54.8799 68.66 54.8228C68.6055 54.772 68.5627 54.7101 68.5345 54.6412C68.5063 54.5723 68.4934 54.4981 68.4968 54.4237C68.4968 54.4237 68.4605 54.2665 68.4 54.0005C68.3266 53.7098 68.2126 53.431 68.0614 53.1721C67.8722 52.8653 67.6184 52.6033 67.3177 52.4043C66.9439 52.1735 66.5016 52.0794 66.0662 52.1382C65.8431 52.1574 65.6225 52.1979 65.4072 52.2592C65.1592 52.329 64.9229 52.4349 64.7058 52.5736C64.4903 52.7153 64.307 52.9007 64.1677 53.1177C64.0219 53.3633 63.9623 53.6506 63.9984 53.934C64.034 54.2615 64.1916 54.5637 64.4398 54.7804C64.7451 55.0721 65.0748 55.3371 65.4253 55.5725C65.8122 55.8385 66.2355 56.1106 66.695 56.4008C67.1525 56.6742 67.5818 56.9922 67.9768 57.3501C68.3631 57.6943 68.7062 58.0841 68.9986 58.5109C69.2837 58.9473 69.4542 59.4484 69.4944 59.9681C69.5855 60.8681 69.4654 61.7769 69.1437 62.6223C68.8235 63.4254 68.3301 64.148 67.6987 64.7385C67.0141 65.3704 66.2188 65.8706 65.3527 66.2138C64.3878 66.6049 63.3679 66.8435 62.3296 66.9212C61.2468 67.0603 60.147 66.8774 59.1675 66.3952C58.7502 66.1686 58.3996 65.8367 58.1503 65.4326C57.901 65.0285 57.7619 64.5661 57.7466 64.0916C57.7019 63.5386 57.774 62.9824 57.9582 62.4591C58.1388 61.9173 58.3996 61.4058 58.7322 60.9415C59.0418 60.5052 59.4194 60.1214 59.8507 59.8048C60.2225 59.5248 60.6635 59.3514 61.1264 59.303C61.4469 59.303 61.6222 59.3695 61.6404 59.5751C61.6545 59.6794 61.6545 59.7851 61.6404 59.8895C61.6248 59.9436 61.6003 59.9947 61.5678 60.0406C61.3374 60.5213 61.1688 61.0292 61.066 61.5522C61.0094 61.8693 60.9911 62.192 61.0116 62.5135C61.0221 62.9453 61.1564 63.365 61.3985 63.7228C61.5836 63.9747 61.8234 64.1814 62.0999 64.3274C62.32 64.4405 62.5605 64.5084 62.8073 64.5269C62.9462 64.5355 63.0855 64.5355 63.2245 64.5269C63.7554 64.5114 64.2703 64.3412 64.7058 64.0372C65.0379 63.7881 65.3173 63.4758 65.5281 63.1181C65.7064 62.8143 65.8274 62.4802 65.8848 62.1326C65.9333 61.9022 65.9516 61.6664 65.9392 61.4312C65.9136 60.9554 65.7497 60.4973 65.4676 60.1132C65.1834 59.7381 64.8404 59.4114 64.4519 59.1458C64.0651 58.8686 63.6612 58.6162 63.2426 58.39C62.8232 58.1607 62.4193 57.9042 62.0334 57.6221C61.6521 57.3438 61.3192 57.0047 61.0478 56.6185C60.7622 56.1945 60.5952 55.7018 60.5642 55.1916C60.5489 54.1366 60.921 53.1126 61.6101 52.3136C62.1529 51.6829 62.8144 51.1652 63.557 50.7899C64.6256 50.2825 65.7852 49.9946 66.9671 49.9435C67.3238 49.9435 67.7108 49.9012 68.1219 49.9012C68.5038 49.9049 68.8844 49.9454 69.2586 50.0221C69.5731 50.0865 69.8714 50.214 70.1353 50.3969C70.2499 50.4789 70.3447 50.5856 70.4128 50.7091C70.4808 50.8325 70.5202 50.9697 70.5283 51.1104" fill="#888888"/>
<path d="M85.6619 49.1031V49.1333C85.1489 50.0378 84.7237 50.9894 84.3922 51.975C84.0173 53.0754 83.6848 54.2 83.4067 55.3548C83.1286 56.5096 82.8867 57.6342 82.6872 58.7226C82.4877 59.8109 82.3244 60.7662 82.2035 61.5764C82.1315 62.0714 82.0851 62.5699 82.0644 63.0698C82.0644 63.493 82.0644 63.8316 82.0644 64.1037C82.0778 64.3078 82.1101 64.5102 82.1612 64.7083C82.1903 64.7848 82.2125 64.8637 82.2277 64.9441C82.2277 65.0166 82.1672 65.1073 82.0221 65.2162C81.7074 65.3743 81.3844 65.5155 81.0547 65.6394C80.7216 65.7705 80.3803 65.8795 80.0329 65.9659C79.6054 66.067 79.1708 66.1357 78.733 66.1715C78.4856 66.194 78.2367 66.194 77.9893 66.1715C77.8744 66.1715 77.8019 66.0626 77.7716 65.9175C77.7739 65.687 77.7901 65.4568 77.82 65.2283C77.82 65.0166 77.8805 64.7687 77.9349 64.4906C77.9893 64.2125 78.0437 63.886 78.1102 63.5776C78.1052 63.5366 78.0907 63.4973 78.0679 63.4628C78.0548 63.4352 78.0327 63.4129 78.0052 63.3997C77.9777 63.3865 77.9464 63.3831 77.9167 63.3902C77.8173 63.4385 77.7273 63.504 77.6507 63.5837C77.4754 63.7711 77.2637 63.9827 77.0098 64.2246C76.7287 64.4803 76.4275 64.7128 76.1089 64.9199C75.746 65.1645 75.3565 65.3673 74.948 65.5245C74.4944 65.6982 74.0177 65.8042 73.5332 65.8389C73.2176 65.8626 72.9002 65.8298 72.5961 65.7422C72.2706 65.6633 71.9669 65.5124 71.7073 65.3008C71.4327 65.0621 71.2069 64.7727 71.0422 64.4483C70.849 64.055 70.734 63.6279 70.7036 63.1907C70.6744 62.616 70.7109 62.0399 70.8124 61.4736C70.9213 60.7783 71.0724 60.0225 71.2599 59.2062C71.4473 58.39 71.6529 57.5556 71.8645 56.685C72.0761 55.8143 72.3059 54.98 72.4691 54.1698C72.6324 53.3596 72.8016 52.6038 72.9105 51.9206C73.0183 51.357 73.0548 50.7822 73.0193 50.2095C73.0435 50.1198 73.0916 50.0383 73.1584 49.9737C73.2743 49.869 73.4046 49.7814 73.5453 49.7137C73.9943 49.4746 74.4746 49.2995 74.9722 49.1938C75.4057 49.1053 75.8437 49.0407 76.2843 49.0003C76.63 48.9699 76.9772 48.9578 77.3242 48.964C77.5842 48.964 77.7172 49.0184 77.7232 49.1152C77.7384 49.152 77.7384 49.1932 77.7232 49.23C77.4485 49.7258 77.2257 50.2485 77.0582 50.7899C76.8163 51.4671 76.5987 52.1443 76.3931 52.8275C76.1573 53.6135 75.9215 54.4358 75.6917 55.3125C75.3916 56.1614 75.1353 57.0251 74.9239 57.9003C74.7918 58.4288 74.6988 58.9664 74.6457 59.5086C74.6185 59.8143 74.6185 60.1218 74.6457 60.4276C74.676 60.6332 74.6941 60.8206 74.7122 60.9899C74.7226 61.2722 74.7948 61.5488 74.9239 61.8001C75.0137 61.9547 75.1328 62.0902 75.2745 62.1991C75.3792 62.277 75.502 62.3269 75.6313 62.3442C75.7078 62.3496 75.7845 62.3496 75.861 62.3442C76.1564 62.3229 76.4443 62.2417 76.7073 62.1055C76.9703 61.9693 77.2028 61.7811 77.3907 61.5522C77.7897 61.0994 78.1161 60.5874 78.3581 60.0346C78.8686 58.9183 79.2852 57.7615 79.6036 56.5762C79.918 55.3992 80.1659 54.3169 80.3473 53.3293C80.5639 52.2319 80.7234 51.124 80.8249 50.01C80.8304 49.94 80.8446 49.8709 80.8673 49.8044C80.886 49.7597 80.9126 49.7188 80.9459 49.6835C80.9714 49.6501 81.0077 49.6266 81.0487 49.617C81.5519 49.3604 82.0809 49.1577 82.6267 49.0124C83.0608 48.8972 83.5037 48.8184 83.9508 48.7766C84.3005 48.7395 84.6532 48.7395 85.0029 48.7766C85.1601 48.7766 85.2991 48.8249 85.408 48.831C85.5168 48.837 85.6498 48.9459 85.6559 49.0365L85.6619 49.1031Z" fill="#888888"/>
<path d="M95.9283 50.1853C95.9639 50.7222 95.8835 51.2604 95.6925 51.7634C95.4966 52.3137 95.226 52.8345 94.8884 53.3112C94.5671 53.7745 94.173 54.1828 93.7215 54.5204C93.3418 54.8158 92.8876 55 92.4095 55.0525C92.2748 55.0668 92.1389 55.0438 92.0164 54.986C91.9586 54.9491 91.911 54.8982 91.8782 54.8379C91.8455 54.7776 91.8285 54.71 91.829 54.6414C91.8309 54.5268 91.8556 54.4138 91.9016 54.3088L92.1011 53.7889C92.224 53.5624 92.3272 53.3257 92.4095 53.0815C92.4891 52.8531 92.5498 52.6185 92.5908 52.3801C92.633 52.1346 92.6452 51.8849 92.6271 51.6364C92.6127 51.3801 92.5314 51.132 92.3913 50.9169C92.2583 50.7355 91.9923 50.663 91.5993 50.6932C91.1261 50.7819 90.6927 51.0166 90.3598 51.3643C89.8335 51.8539 89.3958 52.4307 89.0659 53.0694C88.635 53.8749 88.3157 54.7353 88.1167 55.6269C87.8756 56.6995 87.8083 57.8039 87.9171 58.8979C87.9652 59.2955 88.0861 59.6808 88.2739 60.0346C88.438 60.3369 88.6647 60.6008 88.9389 60.8085C89.2799 61.048 89.6997 61.1476 90.1119 61.0866C90.3788 61.0595 90.6423 61.0048 90.8979 60.9234C91.242 60.8069 91.5677 60.642 91.8653 60.4336C92.2709 60.1444 92.6439 59.8119 92.9778 59.442C93.4313 58.9321 93.8193 58.3675 94.1326 57.7612C94.1514 57.7165 94.178 57.6756 94.2112 57.6403C94.2712 57.5658 94.3581 57.518 94.4531 57.5073H94.5861C94.6629 57.5289 94.7362 57.5615 94.8037 57.604C94.8949 57.6592 94.9749 57.731 95.0395 57.8156C95.119 57.9179 95.1635 58.0429 95.1665 58.1723C95.1337 58.5851 95.0462 58.9918 94.9065 59.3816C94.6689 60.1152 94.3246 60.8099 93.8847 61.4433C93.3468 62.2326 92.6733 62.9204 91.8955 63.4749C90.9554 64.1316 89.8486 64.5089 88.7031 64.5632C88.067 64.6327 87.4234 64.554 86.8228 64.3334C86.3039 64.1316 85.8384 63.813 85.4624 63.4023C85.0833 62.9652 84.79 62.4606 84.5978 61.9149C84.3777 61.3033 84.2414 60.6647 84.1927 60.0164C84.0937 58.7451 84.206 57.4661 84.5252 56.2315C84.8485 54.8994 85.379 53.6263 86.0972 52.4587C86.7998 51.3054 87.7148 50.296 88.7938 49.484C89.8661 48.6761 91.1489 48.1952 92.488 48.0994C93.2995 47.9997 94.1229 48.1144 94.8763 48.4319C95.1984 48.5962 95.4678 48.8477 95.6538 49.1577C95.8398 49.4678 95.9349 49.8238 95.9283 50.1853Z" fill="#888888"/>
<path d="M109.399 52.368C109.501 53.597 109.403 54.8343 109.109 56.032C108.819 57.2785 108.331 58.4705 107.664 59.563C107.003 60.6371 106.138 61.5717 105.119 62.314C104.064 63.0683 102.821 63.5142 101.527 63.6018C100.73 63.6855 99.9251 63.601 99.1631 63.3539C98.5264 63.1302 97.9479 62.7665 97.4702 62.2898C97.0017 61.8078 96.6356 61.2361 96.3939 60.609C96.1332 59.9301 95.9704 59.2175 95.9102 58.4928C95.813 57.2484 95.9316 55.9965 96.2609 54.7925C96.5831 53.5085 97.1076 52.2839 97.8148 51.1648C98.5125 50.0762 99.4089 49.1286 100.457 48.3715C101.523 47.6098 102.778 47.1578 104.085 47.0655C104.828 46.9874 105.579 47.0826 106.279 47.3436C106.892 47.5838 107.442 47.9601 107.888 48.444C108.345 48.9506 108.699 49.5422 108.928 50.1853C109.181 50.8844 109.34 51.6145 109.399 52.3559M105.566 52.1322C105.529 51.4148 105.333 50.7146 104.992 50.0825C104.859 49.8417 104.658 49.646 104.413 49.521C104.168 49.396 103.892 49.3472 103.619 49.3812C103.292 49.4299 102.978 49.5451 102.698 49.7199C102.417 49.8946 102.175 50.125 101.987 50.3969C101.449 51.0925 101.022 51.8677 100.723 52.6945C100.374 53.6319 100.121 54.6022 99.9672 55.5906C99.8061 56.5308 99.7614 57.4873 99.8342 58.4384C99.8728 59.1671 100.08 59.8769 100.439 60.5122C100.583 60.7627 100.799 60.9648 101.058 61.0929C101.318 61.2209 101.609 61.2692 101.896 61.2317C102.222 61.1868 102.534 61.0716 102.81 60.8941C103.087 60.7166 103.322 60.4811 103.498 60.2039C104.018 59.4965 104.426 58.7134 104.707 57.8821C105.044 56.9347 105.287 55.9566 105.433 54.9618C105.581 54.0263 105.622 53.0769 105.554 52.1322" fill="#888888"/>
</svg>
