<svg width="32" height="32" viewBox="0 0 32 32" fill="none" xmlns="http://www.w3.org/2000/svg">
<g clip-path="url(#clip0_121_65)">
<path d="M19.7498 16.6628C19.6109 16.6629 19.4756 16.7065 19.3628 16.7876C19.2501 16.8687 19.1657 16.9832 19.1215 17.1148C18.892 17.7591 18.4688 18.3165 17.9099 18.7107C17.351 19.1048 16.6839 19.3164 16 19.3164C15.3161 19.3164 14.649 19.1048 14.0901 18.7107C13.5312 18.3165 13.108 17.7591 12.8785 17.1148C12.8343 16.9832 12.7499 16.8687 12.6372 16.7876C12.5244 16.7065 12.3891 16.6629 12.2502 16.6628H0.662745C0.486974 16.6628 0.318403 16.7327 0.194114 16.857C0.0698248 16.9812 0 17.1498 0 17.3256L0 31.3374C0 31.5131 0.0698248 31.6817 0.194114 31.806C0.318403 31.9303 0.486974 32.0001 0.662745 32.0001H31.3373C31.513 32.0001 31.6816 31.9303 31.8059 31.806C31.9302 31.6817 32 31.5131 32 31.3374V17.3256C32 17.1498 31.9302 16.9812 31.8059 16.857C31.6816 16.7327 31.513 16.6628 31.3373 16.6628H19.7498Z" fill="#5230BF"/>
<path d="M22.6275 3.31373V0.662745C22.6275 0.486974 22.5576 0.318403 22.4333 0.194114C22.3091 0.0698248 22.1405 0 21.9647 0L10.0353 0C9.85952 0 9.69095 0.0698248 9.56666 0.194114C9.44237 0.318403 9.37255 0.486974 9.37255 0.662745V3.31373C9.37255 3.4895 9.30272 3.65807 9.17843 3.78236C9.05414 3.90665 8.88557 3.97647 8.7098 3.97647H0.662745C0.486974 3.97647 0.318403 4.0463 0.194114 4.17059C0.0698248 4.29488 0 4.46345 0 4.63922L0 14.6745C0 14.8503 0.0698248 15.0189 0.194114 15.1431C0.318403 15.2674 0.486974 15.3373 0.662745 15.3373H12.2502C12.3889 15.3373 12.5241 15.2939 12.6369 15.213C12.7496 15.1322 12.8341 15.018 12.8785 14.8866C13.108 14.2424 13.5312 13.6849 14.0901 13.2908C14.649 12.8966 15.3161 12.685 16 12.685C16.6839 12.685 17.351 12.8966 17.9099 13.2908C18.4688 13.6849 18.892 14.2424 19.1215 14.8866C19.1659 15.018 19.2504 15.1322 19.3631 15.213C19.4759 15.2939 19.6111 15.3373 19.7498 15.3373H31.3373C31.513 15.3373 31.6816 15.2674 31.8059 15.1431C31.9302 15.0189 32 14.8503 32 14.6745V4.63922C32 4.46345 31.9302 4.29488 31.8059 4.17059C31.6816 4.0463 31.513 3.97647 31.3373 3.97647H23.2902C23.1144 3.97647 22.9459 3.90665 22.8216 3.78236C22.6973 3.65807 22.6275 3.4895 22.6275 3.31373ZM19.3137 3.97647H12.6863C12.5105 3.97647 12.3419 3.90665 12.2176 3.78236C12.0934 3.65807 12.0235 3.4895 12.0235 3.31373C12.0235 3.13796 12.0934 2.96938 12.2176 2.8451C12.3419 2.72081 12.5105 2.65098 12.6863 2.65098H19.3137C19.4895 2.65098 19.6581 2.72081 19.7824 2.8451C19.9066 2.96938 19.9765 3.13796 19.9765 3.31373V3.31373C19.9765 3.4895 19.9066 3.65807 19.7824 3.78236C19.6581 3.90665 19.4895 3.97647 19.3137 3.97647V3.97647Z" fill="#7751F1"/>
</g>
<defs>
<clipPath id="clip0_121_65">
<rect width="32" height="32" fill="white"/>
</clipPath>
</defs>
</svg>
