<svg width="48" height="48" viewBox="0 0 48 48" fill="none" xmlns="http://www.w3.org/2000/svg">
<path d="M24.9999 0.993871V11.5766C24.9987 11.7222 25.0507 11.8632 25.1463 11.9731C25.2419 12.0829 25.3743 12.154 25.5187 12.1729C28.3915 12.5462 31.0303 13.9523 32.9423 16.1287C34.8542 18.3051 35.9087 21.103 35.9087 24C35.9087 26.897 34.8542 29.6949 32.9423 31.8713C31.0303 34.0477 28.3915 35.4539 25.5187 35.8271C25.3743 35.846 25.2419 35.9171 25.1463 36.0269C25.0507 36.1368 24.9987 36.2778 24.9999 36.4234V47.0061C24.9999 47.2697 25.1046 47.5225 25.291 47.7089C25.4774 47.8953 25.7302 48 25.9938 48H47.0062C47.2698 48 47.5226 47.8953 47.709 47.7089C47.8954 47.5225 48.0001 47.2697 48.0001 47.0061V0.993871C48.0001 0.73028 47.8954 0.477485 47.709 0.291098C47.5226 0.104711 47.2698 0 47.0062 0L25.9938 0C25.7302 0 25.4774 0.104711 25.291 0.291098C25.1046 0.477485 24.9999 0.73028 24.9999 0.993871Z" fill="#5230BF"/>
<path d="M24.006 14.0553C23.7441 14.0553 23.4928 13.952 23.3067 13.7677C23.1206 13.5835 23.0147 13.3333 23.0121 13.0714V0.993871C23.0121 0.73028 22.9074 0.477485 22.721 0.291098C22.5346 0.104711 22.2818 0 22.0183 0L1.00583 0C0.742243 0 0.489448 0.104711 0.303061 0.291098C0.116674 0.477485 0.0119629 0.73028 0.0119629 0.993871L0.0119629 11.2307C0.0121492 11.4663 0.0959864 11.6941 0.248526 11.8736C0.401066 12.0531 0.612393 12.1725 0.844827 12.2107C3.65597 12.6497 6.21801 14.0779 8.06962 16.2382C9.92123 18.3985 10.9407 21.1488 10.9445 23.994C10.9412 26.8396 9.92192 29.5904 8.07027 31.7511C6.21862 33.9118 3.6563 35.3403 0.844827 35.7794C0.61273 35.8175 0.401667 35.9366 0.249168 36.1157C0.0966696 36.2948 0.0126194 36.5221 0.0119629 36.7573L0.0119629 46.9942C0.0119629 47.2578 0.116674 47.5106 0.303061 47.697C0.489448 47.8834 0.742243 47.9881 1.00583 47.9881H22.0183C22.2818 47.9881 22.5346 47.8834 22.721 47.697C22.9074 47.5106 23.0121 47.2578 23.0121 46.9942V34.9167C23.0147 34.6548 23.1206 34.4046 23.3067 34.2203C23.4928 34.0361 23.7441 33.9327 24.006 33.9327C26.6419 33.9327 29.1699 32.8856 31.0337 31.0218C32.8976 29.1579 33.9447 26.6299 33.9447 23.994C33.9447 21.3581 32.8976 18.8302 31.0337 16.9663C29.1699 15.1024 26.6419 14.0553 24.006 14.0553Z" fill="#7751F1"/>
</svg>
