<svg width="72" height="72" viewBox="0 0 72 72" fill="none" xmlns="http://www.w3.org/2000/svg">
<path d="M69.3605 69.3651C67.9265 70.7984 66.0506 71.7057 64.0366 71.9398C62.0226 72.1739 59.9886 71.7212 58.264 70.6549C56.5395 69.5887 55.2254 67.9714 54.5348 66.0651C53.8441 64.1589 53.8173 62.0752 54.4587 60.1518C54.5901 59.7694 54.6115 59.3578 54.5205 58.9638C54.4295 58.5698 54.2297 58.2093 53.9439 57.9232L52.0753 56.0582C51.7765 55.7593 51.3965 55.5545 50.9824 55.4694C50.5684 55.3843 50.1384 55.4225 49.7459 55.5794C48.0155 56.2417 46.1367 56.4171 44.3137 56.0864C42.4907 55.7557 40.7932 54.9316 39.4057 53.7036C39.091 53.4233 38.7019 53.2401 38.2853 53.1762C37.8687 53.1123 37.4426 53.1705 37.0583 53.3436L19.2546 61.4227C18.8881 61.5933 18.5762 61.8625 18.3536 62.2C18.1311 62.5376 18.0068 62.9304 17.9945 63.3345C17.9187 65.3612 17.1605 67.3029 15.8431 68.8448C14.5256 70.3867 12.726 71.4385 10.736 71.8296C8.74594 72.2208 6.68213 71.9284 4.87907 70.9999C3.07601 70.0713 1.63939 68.561 0.802068 66.7139C-0.0352522 64.8667 -0.224189 62.7908 0.265884 60.8228C0.755956 58.8548 1.89631 57.11 3.50211 55.8712C5.1079 54.6324 7.08501 53.9722 9.11296 53.9977C11.1409 54.0231 13.1008 54.7327 14.675 56.0114C14.994 56.2645 15.3769 56.424 15.7812 56.4723C16.1855 56.5207 16.5952 56.4558 16.9648 56.2851L34.7361 48.2095C35.1193 48.0348 35.443 47.7519 35.6676 47.3956C35.8921 47.0393 36.0076 46.6252 35.9998 46.2041V46.1213C35.9981 44.62 36.3311 43.1373 36.9744 41.7808C37.6178 40.4244 38.5553 39.2284 39.7189 38.2798C40.0452 38.0149 40.2871 37.6605 40.415 37.2602C40.5429 36.8599 40.5512 36.431 40.439 36.026L35.9026 19.3924C35.7994 19.0052 35.5905 18.6543 35.2993 18.379C35.0081 18.1037 34.646 17.9148 34.2536 17.8335C32.2609 17.4427 30.4588 16.3895 29.1402 14.8451C27.8217 13.3007 27.0641 11.3557 26.9907 9.32634C26.9173 7.29693 27.5322 5.30233 28.7357 3.66664C29.9392 2.03094 31.6604 0.850282 33.6198 0.316504C35.5791 -0.217274 37.6613 -0.0728001 39.5282 0.726451C41.395 1.5257 42.9367 2.93276 43.9028 4.71898C44.8688 6.50521 45.2025 8.56563 44.8495 10.5654C44.4965 12.5653 43.4776 14.3869 41.9584 15.7345C41.6623 15.9999 41.4464 16.3429 41.335 16.7247C41.2237 17.1064 41.2214 17.5117 41.3283 17.8947L45.8719 34.521C45.9786 34.9285 46.2021 35.2959 46.5149 35.578C46.8277 35.8601 47.2162 36.0446 47.6325 36.1088C49.1296 36.3354 50.557 36.8947 51.8095 37.7456C53.062 38.5965 54.1078 39.7174 54.8701 41.0257C55.6324 42.3341 56.0917 43.7966 56.2143 45.3059C56.3369 46.8151 56.1196 48.3326 55.5784 49.7468C55.4231 50.14 55.3854 50.5697 55.4698 50.9839C55.5541 51.3981 55.757 51.7788 56.0537 52.0799L57.9222 53.9448C58.208 54.23 58.5679 54.4293 58.9611 54.5203C59.3544 54.6113 59.7653 54.5903 60.1473 54.4597C62.0714 53.8167 64.1562 53.8426 66.0638 54.5331C67.9713 55.2237 69.5896 56.5384 70.6563 58.264C71.7229 59.9896 72.1753 62.025 71.9401 64.04C71.7049 66.055 70.7959 67.9315 69.3605 69.3651Z" fill="#7751F1"/>
</svg>
