<svg width="32" height="32" viewBox="0 0 32 32" fill="none" xmlns="http://www.w3.org/2000/svg">
<g clip-path="url(#clip0_247_619)">
<path d="M30.8265 30.8289C30.1892 31.466 29.3555 31.8692 28.4604 31.9732C27.5653 32.0773 26.6612 31.8761 25.8948 31.4022C25.1283 30.9283 24.5443 30.2095 24.2373 29.3623C23.9304 28.515 23.9185 27.589 24.2035 26.7341C24.2619 26.5642 24.2714 26.3812 24.231 26.2061C24.1905 26.031 24.1017 25.8708 23.9747 25.7436L23.1442 24.9148C23.0114 24.7819 22.8425 24.6909 22.6585 24.6531C22.4745 24.6152 22.2834 24.6322 22.1089 24.7019C21.3399 24.9963 20.5049 25.0743 19.6946 24.9273C18.8844 24.7803 18.1299 24.414 17.5133 23.8683C17.3734 23.7437 17.2005 23.6623 17.0153 23.6339C16.8302 23.6055 16.6408 23.6313 16.47 23.7083L8.55727 27.299C8.39435 27.3748 8.25572 27.4944 8.15682 27.6445C8.05793 27.7945 8.00267 27.9691 7.99721 28.1487C7.96349 29.0494 7.62655 29.9124 7.04101 30.5977C6.45547 31.283 5.65565 31.7504 4.77119 31.9243C3.88673 32.0981 2.96948 31.9682 2.16812 31.5555C1.36676 31.1428 0.728264 30.4716 0.356122 29.6506C-0.0160203 28.8296 -0.0999921 27.907 0.117818 27.0324C0.335628 26.1577 0.842453 25.3822 1.55614 24.8316C2.26983 24.2811 3.14854 23.9876 4.04985 23.999C4.95116 24.0103 5.82224 24.3256 6.52188 24.894C6.66364 25.0064 6.83383 25.0773 7.01351 25.0988C7.19319 25.1203 7.3753 25.0915 7.53957 25.0156L15.4379 21.4264C15.6082 21.3488 15.7521 21.2231 15.8519 21.0647C15.9517 20.9064 16.003 20.7223 15.9996 20.5352V20.4984C15.9988 19.8311 16.1468 19.1721 16.4327 18.5693C16.7187 17.9664 17.1354 17.4348 17.6525 17.0132C17.7975 16.8955 17.905 16.738 17.9619 16.5601C18.0187 16.3822 18.0224 16.1915 17.9725 16.0115L15.9564 8.61885C15.9105 8.44675 15.8177 8.2908 15.6882 8.16844C15.5588 8.04608 15.3979 7.96213 15.2235 7.92599C14.3378 7.75231 13.5369 7.28424 12.9509 6.59782C12.3648 5.91141 12.0281 5.04699 11.9955 4.14504C11.9629 3.24308 12.2362 2.35659 12.7711 1.62962C13.306 0.902641 14.071 0.377903 14.9418 0.140668C15.8126 -0.0965662 16.738 -0.0323555 17.5677 0.322867C18.3974 0.678089 19.0826 1.30345 19.512 2.09733C19.9413 2.8912 20.0896 3.80695 19.9327 4.69575C19.7758 5.58456 19.323 6.39419 18.6478 6.9931C18.5162 7.11108 18.4203 7.26351 18.3708 7.43318C18.3213 7.60284 18.3202 7.78297 18.3678 7.95319L20.3872 15.3427C20.4346 15.5238 20.5339 15.6871 20.673 15.8124C20.812 15.9378 20.9846 16.0198 21.1696 16.0483C21.835 16.1491 22.4694 16.3977 23.0261 16.7758C23.5828 17.154 24.0476 17.6522 24.3864 18.2337C24.7252 18.8151 24.9293 19.4652 24.9838 20.1359C25.0383 20.8067 24.9417 21.4812 24.7012 22.1097C24.6322 22.2844 24.6154 22.4754 24.6529 22.6595C24.6904 22.8436 24.7805 23.0128 24.9124 23.1466L25.7429 23.9755C25.8699 24.1022 26.0298 24.1908 26.2046 24.2313C26.3794 24.2717 26.562 24.2624 26.7318 24.2043C27.5869 23.9185 28.5135 23.93 29.3613 24.2369C30.2091 24.5438 30.9284 25.1282 31.4024 25.8951C31.8765 26.6621 32.0776 27.5667 31.973 28.4622C31.8685 29.3578 31.4645 30.1918 30.8265 30.8289Z" fill="#DDD3FB"/>
</g>
<defs>
<clipPath id="clip0_247_619">
<rect width="32" height="32" fill="white"/>
</clipPath>
</defs>
</svg>
