<svg width="48" height="48" viewBox="0 0 48 48" fill="none" xmlns="http://www.w3.org/2000/svg">
<path d="M9.95221 19.8837C15.441 19.8837 19.8905 15.4341 19.8905 9.94537C19.8905 4.45661 15.441 0.00708008 9.95221 0.00708008C4.46344 0.00708008 0.013916 4.45661 0.013916 9.94537C0.013916 15.4341 4.46344 19.8837 9.95221 19.8837Z" fill="#5230BF"/>
<path d="M38.0616 47.9933C43.5504 47.9933 47.9999 43.5438 47.9999 38.055C47.9999 32.5662 43.5504 28.1167 38.0616 28.1167C32.5728 28.1167 28.1233 32.5662 28.1233 38.055C28.1233 43.5438 32.5728 47.9933 38.0616 47.9933Z" fill="#5230BF"/>
<path d="M31.2639 2.69636C29.5291 4.32238 28.4348 6.51646 28.1795 8.8804C27.9242 11.2443 28.5249 13.6215 29.8726 15.5804C30.0035 15.7717 30.0635 16.0028 30.0421 16.2336C30.0207 16.4645 29.9192 16.6806 29.7553 16.8445L16.8514 29.7504C16.6875 29.9143 16.4714 30.0158 16.2405 30.0372C16.0097 30.0586 15.7786 29.9986 15.5873 29.8677C13.5429 28.4646 11.048 27.8763 8.59221 28.2185C6.13643 28.5606 3.89723 29.8083 2.31422 31.7167C0.731214 33.6251 -0.0812501 36.0563 0.0363371 38.533C0.153924 41.0097 1.19307 43.353 2.94976 45.1029C4.70645 46.8527 7.05379 47.8827 9.53093 47.9906C12.0081 48.0985 14.4361 47.2765 16.3383 45.6861C18.2405 44.0956 19.4795 41.8516 19.812 39.3945C20.1445 36.9374 19.5465 34.4447 18.1354 32.4059C18.0065 32.2147 17.9482 31.9846 17.9703 31.755C17.9924 31.5255 18.0937 31.3108 18.2567 31.1477L31.1626 18.2418C31.3256 18.0788 31.5404 17.9775 31.7699 17.9554C31.9994 17.9333 32.2295 17.9917 32.4207 18.1206C33.9646 19.1849 35.778 19.7907 37.6515 19.8681C39.5251 19.9455 41.3823 19.4913 43.0086 18.5579C44.6349 17.6245 45.964 16.2501 46.8423 14.5934C47.7206 12.9367 48.1123 11.0653 47.9721 9.19539C47.832 7.32551 47.1656 5.53343 46.0502 4.02617C44.9347 2.51892 43.4155 1.358 41.6682 0.677512C39.9209 -0.00297156 38.0168 -0.175248 36.1757 0.180585C34.3347 0.536417 32.6318 1.40584 31.2639 2.68841V2.69636Z" fill="#7751F1"/>
</svg>
