<svg width="16" height="16" viewBox="0 0 16 16" fill="none" xmlns="http://www.w3.org/2000/svg">
<rect width="16" height="16" fill="#DDD3FB"/>
<mask id="mask0_362_1586" style="mask-type:alpha" maskUnits="userSpaceOnUse" x="3" y="3" width="10" height="10">
<path d="M13 3H3V13H13V3Z" fill="white"/>
</mask>
<g mask="url(#mask0_362_1586)">
<path d="M7.0625 3.625C6.81386 3.625 6.5754 3.72377 6.39959 3.89959C6.22378 4.0754 6.125 4.31386 6.125 4.5625V4.875H3.9375C3.68886 4.875 3.4504 4.97378 3.27459 5.14959C3.09877 5.3254 3 5.56386 3 5.8125V6.6775L7.75875 7.94625C7.91683 7.98834 8.08317 7.98834 8.24125 7.94625L13 6.6775V5.8125C13 5.56386 12.9013 5.3254 12.7254 5.14959C12.5496 4.97378 12.3111 4.875 12.0625 4.875H9.875V4.5625C9.875 4.31386 9.77625 4.0754 9.60044 3.89959C9.42463 3.72377 9.18614 3.625 8.9375 3.625H7.0625ZM7.0625 4.25H8.9375C9.02038 4.25 9.09987 4.28293 9.15847 4.34153C9.21707 4.40013 9.25 4.47962 9.25 4.5625V4.875H6.75V4.5625C6.75 4.47962 6.78293 4.40013 6.84153 4.34153C6.90013 4.28293 6.97962 4.25 7.0625 4.25Z" fill="#5230BF"/>
<path d="M3 10.8127C3 11.0613 3.09877 11.2998 3.27459 11.4756C3.4504 11.6514 3.68886 11.7502 3.9375 11.7502H12.0625C12.3111 11.7502 12.5496 11.6514 12.7254 11.4756C12.9013 11.2998 13 11.0613 13 10.8127V7.28143L8.08062 8.59206C8.0278 8.60616 7.9722 8.60616 7.91937 8.59206L3 7.28143V10.8127Z" fill="#5230BF"/>
</g>
</svg>
