<svg width="16" height="16" viewBox="0 0 16 16" fill="none" xmlns="http://www.w3.org/2000/svg">
<rect width="16" height="16" fill="#DDD3FB"/>
<path d="M3.83333 13C3.83333 13 3 13 3 12.1667C3 11.3333 3.83333 8.83333 8 8.83333C12.1667 8.83333 13 11.3333 13 12.1667C13 13 12.1667 13 12.1667 13H3.83333ZM8 8C8.66304 8 9.29892 7.73661 9.76775 7.26777C10.2366 6.79892 10.5 6.16304 10.5 5.5C10.5 4.83696 10.2366 4.20107 9.76775 3.73223C9.29892 3.26339 8.66304 3 8 3C7.33696 3 6.70108 3.26339 6.23223 3.73223C5.76339 4.20107 5.5 4.83696 5.5 5.5C5.5 6.16304 5.76339 6.79892 6.23223 7.26777C6.70108 7.73661 7.33696 8 8 8Z" fill="#5230BF"/>
</svg>
